<?xml version="1.0" encoding="utf-8"?>
<!-- Generator: Adobe Illustrator 16.0.0, SVG Export Plug-In . SVG Version: 6.00 Build 0)  -->
<!DOCTYPE svg PUBLIC "-//W3C//DTD SVG 1.1//EN" "http://www.w3.org/Graphics/SVG/1.1/DTD/svg11.dtd">
<svg version="1.1" id="Layer_1" xmlns="http://www.w3.org/2000/svg" xmlns:xlink="http://www.w3.org/1999/xlink" x="0px" y="0px"
	 width="212.944px" height="228.809px" viewBox="0 0 212.944 228.809" enable-background="new 0 0 212.944 228.809"
	 xml:space="preserve">
<g>
	<path fill-rule="evenodd" clip-rule="evenodd" fill="#353535" d="M171.812,156.723c0,7.522-5.949,13.621-13.285,13.621H52.791
		c-7.337,0-13.286-6.099-13.286-13.621V22.392c0-7.523,5.949-13.621,13.286-13.621h105.736c7.336,0,13.285,6.098,13.285,13.621
		V156.723z"/>
	<linearGradient id="SVGID_1_" gradientUnits="userSpaceOnUse" x1="165.1162" y1="219.6758" x2="46.9023" y2="101.4619">
		<stop  offset="0" style="stop-color:#F7941E"/>
		<stop  offset="0.137" style="stop-color:#F9ED32"/>
		<stop  offset="0.2631" style="stop-color:#F7941E"/>
		<stop  offset="0.4551" style="stop-color:#F9ED32"/>
		<stop  offset="0.5548" style="stop-color:#FBB040"/>
		<stop  offset="0.695" style="stop-color:#F9ED32"/>
		<stop  offset="0.7781" style="stop-color:#FBB040"/>
		<stop  offset="0.8649" style="stop-color:#F7941E"/>
		<stop  offset="1" style="stop-color:#FBB040"/>
	</linearGradient>
	<path fill-rule="evenodd" clip-rule="evenodd" fill="url(#SVGID_1_)" d="M6.052,168.184c7.497-3.531,14.994-7.062,22.354-10.528
		c-0.195-4.163-0.372-7.956-0.574-12.279c-6.042,0-12.219,0-19.526,0c6.01-8.008,11.225-15.245,16.846-22.153
		c0.913-1.122,3.627-1.093,5.501-1.068c11.338,0.145,11.337,0.196,20.459-7.242c-2.202-1.447-4.307-2.83-7.145-4.695
		c9.083-3.221,17.477-6.234,25.913-9.127c0.812-0.279,2.157-0.142,2.786,0.374c4.08,3.345,8.505,2.702,13.208,1.835
		c3.555-0.656,6.514-1.326,6.151-5.891c9.411,0,18.54,0,27.833,0c0.346,1.555,0.66,2.979,1.056,4.76
		c6.192,0.513,12.365,4.206,18.53-0.676c0.795-0.63,2.613-0.477,3.75-0.086c7.995,2.749,15.936,5.655,24.738,8.814
		c-2.531,1.71-4.475,3.023-6.472,4.371c5.415,5.176,11.171,9.291,19.247,7.541c4.133-0.895,6.703,0.952,9.015,4.357
		c4.179,6.155,8.829,11.989,13.731,18.561c-6.411,0-12.098,0-18.027,0c-0.247,4.439-0.475,8.519-0.728,13.057
		c6.79,3.266,13.767,6.621,21.219,10.205c-7.987,11.568-15.686,22.719-23.558,34.119c-7.031-4.971-13.746-9.564-20.27-14.416
		c-2.145-1.594-3.736-1.769-6.239-0.652c-6.343,2.826-12.9,5.169-19.817,7.88c1.688,7.931,3.439,16.162,5.305,24.924
		c-23.57,0-46.734,0-70.677,0c1.81-8.546,3.581-16.905,5.342-25.224c-7.078-2.943-14.042-5.986-21.149-8.646
		c-1.126-0.422-3.099,0.581-4.336,1.428c-6.856,4.695-13.605,9.547-20.888,14.695c-5.001-7.216-9.847-14.299-14.793-21.312
		c-2.845-4.034-5.852-7.954-8.785-11.925C6.052,168.85,6.052,168.518,6.052,168.184z M105.996,109.414
		c-5.451,0.609-10.98,0.83-16.337,1.91c-10.724,2.163-20.909,5.779-28.71,13.981c-8.224,8.646-8.589,20.019-0.41,28.686
		c3.463,3.668,7.842,6.808,12.36,9.086c13.629,6.871,28.276,8.326,43.293,6.6c11.593-1.333,22.502-4.639,31.727-12.131
		c6.432-5.223,10.357-11.796,9.199-20.414c-1.006-7.48-5.729-12.654-11.699-16.641C133.523,112.546,120.11,109.843,105.996,109.414z
		"/>
	<path fill-rule="evenodd" clip-rule="evenodd" d="M108.004,165.134c-13.122-0.067-24.955-2.25-35.436-9.244
		c-14.9-9.945-14.898-25.268-0.107-35.24c18.33-12.357,51.019-12.311,69.396,0.102c14.382,9.713,14.626,24.711,0.429,34.664
		C131.794,162.77,119.796,164.992,108.004,165.134z M130.641,148.42c2.432,0.054,8.464-3.868,10.537-5.227
		c14.103-9.236-4.814-6.575-21.25-10.25c-20.543-4.593-30.23-9.114-48.25,0c-15.053,7.613,18.207,2.907,36.153,8.75"/>
	<path fill-rule="evenodd" clip-rule="evenodd" fill="#FCFCFC" d="M91.73,129.563c3.326-0.943,4.475,0.855,5.386,3.587
		c2.276,6.831,4.824,13.572,7.202,20.369c0.386,1.104,1.958,2.884-0.078,3.301c-1.86,0.382-4.67,1.563-5.811-1.625
		c-0.228-0.635-0.538-1.272-0.604-1.928c-0.24-2.348-1.648-2.965-3.776-2.758c-1.013,0.099-2.062,0.146-3.061-0.007
		c-3.354-0.516-5.323,0.567-5.904,4.138c-0.344,2.117-4.037,3.324-6.059,2.296c-1.217-0.619-0.667-1.586-0.397-2.338
		c2.77-7.735,5.679-15.424,8.369-23.187C87.954,128.649,90.107,129.859,91.73,129.563z"/>
	<path fill-rule="evenodd" clip-rule="evenodd" fill="#FCFBFB" d="M119.257,129.293c2.553,0.102,5.977,0.982,7.873,4.688
		c0.595,1.159,1.633,2.958,0.013,3.501c-1.483,0.497-3.952,1.394-5.027-1.013c-1.188-2.662-3.308-2.722-5.667-2.499
		c-1.451,0.136-2.325,1.019-2.535,2.334c-0.195,1.219,0.477,2.24,1.668,2.636c2.034,0.675,4.106,1.246,6.182,1.786
		c5.25,1.365,7.383,3.781,7.245,8.294c-0.134,4.4-2.557,6.962-7.64,8.074c-5.265,1.154-10.524-0.557-12.697-4.254
		c-0.884-1.505-2.179-3.727-0.274-4.688c1.557-0.785,4.306-1.651,5.537,1.685c1.008,2.729,5.192,3.562,7.645,1.965
		c1.984-1.293,1.8-4.035-0.561-5.187c-1.699-0.828-3.645-1.159-5.48-1.711c-6.144-1.843-8.352-4.448-7.593-8.953
		C108.65,131.762,112.452,129.242,119.257,129.293z"/>
	<path fill-rule="evenodd" clip-rule="evenodd" fill="#F3F2F2" d="M73.726,141.439c0.35,1.134,0.396,2.266-0.015,3.396
		c-3.145,1.381-6.453,0.475-9.682,0.646c-3.393,0.178-4.836,2.288-3.633,5.505c0.451,1.205,1.392,0.939,2.232,0.947
		c3.614,0.035,7.23,0.062,10.845-0.004c1.878-0.034,1.869,1.086,1.88,2.41c0.011,1.365-0.081,2.423-1.931,2.354
		c-6.08-0.222-12.174,0.34-18.248-0.31l-0.011,0.031c-0.604-8.09-0.102-16.191-0.279-24.285c-0.031-1.412,0.599-2.127,1.98-2.147
		c5.218-0.079,10.436-0.061,15.653-0.012c1.558,0.014,2.135,0.781,2.174,2.332c0.042,1.73-0.783,2.078-2.282,2.05
		c-3.062-0.059-6.129,0.068-9.188-0.043c-2.606-0.095-2.908,1.373-2.922,3.445c-0.015,2.116,0.372,3.461,2.956,3.396
		C66.745,141.064,70.248,140.945,73.726,141.439z"/>
	<path fill-rule="evenodd" clip-rule="evenodd" fill="#FBFAFA" d="M134.451,129.523c2.177-0.454,3.371,0.593,4.309,2.422
		c1.181,2.305,2.704,4.436,3.88,6.741c1.175,2.305,1.953,1.53,2.855-0.123c1.296-2.376,2.629-4.73,3.942-7.096
		c0.494-0.889,0.938-1.97,2.141-1.913c1.643,0.076,3.803-0.885,4.794,0.499c0.848,1.184-0.954,2.541-1.645,3.776
		c-1.097,1.97-2.202,3.962-3.554,5.76c-3.243,4.316-5.106,8.966-4.237,14.446c0.37,2.331-0.605,3.089-3.013,3.098
		c-2.456,0.009-3.327-0.837-2.977-3.133c0.815-5.34-0.923-9.904-4.092-14.146c-1.615-2.162-2.912-4.562-4.298-6.889
		c-0.559-0.938-1.77-1.93-1.206-2.972C131.932,128.92,133.414,129.721,134.451,129.523z"/>
	<path fill-rule="evenodd" clip-rule="evenodd" fill="#FFFFFF" d="M70.777,168.462c-5.491,0.166-5.491,0.166-5.492,5.623
		c0,2.815,0.016,5.631-0.012,8.447c-0.01,0.997,0.095,2.236-1.441,2.133c-1.252-0.083-1.182-1.195-1.188-2.071
		c-0.031-3.605,0.037-7.211,0.028-10.812c-0.007-2.993,0.743-3.287-3.219-3.298c-1.217-0.003-2.98,0.563-2.75-1.766
		c4.424-1.229,8.932-0.378,13.396-0.451C71.6,166.243,71.433,167.449,70.777,168.462z"/>
	<path fill-rule="evenodd" clip-rule="evenodd" fill="#E0DFDF" d="M73.726,141.439c-3.726,0.003-7.454-0.082-11.176,0.041
		c-2.249,0.073-2.753-1.055-2.554-2.921c0.196-1.85-0.832-4.431,2.474-4.537c3.06-0.097,6.125-0.031,9.188-0.044
		c1.255-0.006,2.637,0.153,2.59-1.757c-0.039-1.675-1.264-1.598-2.415-1.6c-4.651-0.008-9.304,0.078-13.952-0.043
		c-2.208-0.058-2.639,0.954-2.631,2.865c0.031,7.656-0.047,15.314-0.085,22.972c-1.022-2.6-0.39-5.31-0.457-7.959
		c-0.14-5.407,0.01-10.823-0.07-16.233c-0.027-1.925,0.429-2.882,2.646-2.822c5.104,0.14,10.22,0.141,15.325,0.012
		c2.376-0.062,2.458,1.231,2.519,2.985c0.068,1.963-0.769,2.55-2.637,2.486c-3.062-0.104-6.135,0.09-9.192-0.059
		c-2.684-0.131-2.42,1.525-2.506,3.289c-0.089,1.872,0.47,2.659,2.471,2.566c2.832-0.131,5.676-0.041,8.514,0.015
		C72.475,140.708,73.437,140.276,73.726,141.439z"/>
	<path fill-rule="evenodd" clip-rule="evenodd" fill="#FFFFFF" d="M150.281,166.71c1.11,0.254,1.557,0.6,2.444,1.386
		c0.789,0.699,2.181,2.135,0.93,2.909c-1.069,0.661-1.603-0.635-2.141-1.186c-1.99-2.031-3.843-2.042-6.071-0.547
		c-0.813,1.056-0.582,2.368,0,3.5c1.775,2.136,4.455,1.508,6.683,2.662c1.946,1.009,3.48,1.831,3.294,4.315
		c-0.194,2.582-0.441,4.781-6.782,5.086c-0.23-0.194,2.352-1.168,2.337-1.469c0.066-0.649,0.731-0.864,1.004-1.364
		c1.812-2.128,1.312-3.866-0.938-4.991c-1.738-0.625-2.573-0.645-4.052-1.14c-2.647-0.676-2.874-1.183-3.876-2.371
		c-0.438-1.464-0.77-2.521-0.017-4.396c0.476-0.887,0.726-1.125,1.876-1.943C145.947,166.752,146.594,165.981,150.281,166.71z"/>
	<path fill-rule="evenodd" clip-rule="evenodd" fill="#EDEDED" d="M55.175,156.384c5.65-0.019,11.301-0.03,16.95-0.06
		c1.345-0.007,2.797,0.216,2.873-1.872c0.081-2.266-1.417-2.154-2.938-2.15c-3.164,0.009-6.332-0.097-9.491,0.026
		c-3.223,0.124-2.523-2.118-2.566-3.913c-0.041-1.771-0.414-3.72,2.522-3.616c3.725,0.13,7.458,0.034,11.187,0.036
		c0.009,1.488-1.136,1.111-1.945,1.121c-2.605,0.034-5.218,0.116-7.814-0.041c-2.205-0.133-3.239,0.325-3.302,2.879
		c-0.067,2.719,1.021,3.21,3.387,3.096c3.276-0.158,6.568,0.015,9.853-0.059c1.698-0.037,2.2,0.762,2.05,2.271
		c-0.123,1.249,0.469,2.956-1.715,2.951c-6.225-0.015-12.449-0.081-18.673-0.155C55.423,156.898,55.301,156.563,55.175,156.384z"/>
	<path fill-rule="evenodd" clip-rule="evenodd" fill="#FFFFFF" d="M125.582,166.608c0.372-0.004,0.741-0.008,1.113-0.012
		c1.044,3.171,0.209,6.429,0.447,9.64c0.14,1.899-0.178,3.821,0.242,5.713c-0.128,1.288-0.544,2.166-2.083,1.445
		C125.18,177.794,124.626,172.189,125.582,166.608z"/>
	<path fill-rule="evenodd" clip-rule="evenodd" fill="#FFFFFF" d="M125.407,183.432c0.955-0.048,1.357-0.638,1.487-1.494
		c2.037,0.635,4.137,0.426,6.221,0.485c1.154,0.033,2.503-0.411,3.211,1.033c-0.017,1.565-1.205,1.28-2.139,1.283
		c-2.875,0.007-5.75-0.037-8.626-0.061C125.003,184.326,125.103,183.891,125.407,183.432z"/>
	<path fill-rule="evenodd" clip-rule="evenodd" fill="#FFFFFF" d="M148.638,184.75c-3.296,0.191-5.343-1.381-6.324-4.436
		c-0.219-0.678-0.28-1.393,0.489-1.756c0.87-0.409,1.67-0.11,1.881,0.803c0.358,1.556,1.32,2.559,2.594,3.371
		c0.183,0.165,0.358,0.337,0.53,0.514C148.22,183.674,148.962,183.923,148.638,184.75z"/>
	<path fill-rule="evenodd" clip-rule="evenodd" fill="#7F7E7E" d="M136.326,183.457c-1.652-1.093-3.51-0.471-5.273-0.6
		c-1.439-0.105-2.962,0.248-4.158-0.919c-0.066-5.113-0.133-10.228-0.199-15.342c1.595,0.475,0.997,1.813,1.023,2.805
		c0.081,3.012,0.235,6.046-0.028,9.037c-0.271,3.078,0.97,4.008,3.848,3.643c1.213-0.154,2.471-0.023,3.703,0.051
		C136.016,182.177,136.464,182.611,136.326,183.457z"/>
	<path fill-rule="evenodd" clip-rule="evenodd" fill="#7F7E7E" d="M125.407,183.432c0.053,0.415,0.103,0.832,0.154,1.247
		c-0.695-0.12-0.867-0.646-0.869-1.219c-0.016-5.237-0.019-10.474-0.011-15.712c0.001-0.573,0.161-1.103,0.9-1.141
		C124.9,172.208,125.194,177.821,125.407,183.432z"/>
	<path fill-rule="evenodd" clip-rule="evenodd" fill="#4F4F4F" d="M70.777,168.462c0.445-1.464-0.138-2.079-1.637-2.022
		c-4.144,0.157-8.303-0.332-12.437,0.278c0.368-1.175,1.379-0.962,2.234-0.968c3.485-0.025,6.97-0.007,10.455-0.011
		c0.927-0.001,1.848,0.052,2.294,1.033C72.099,167.679,71.796,168.279,70.777,168.462z"/>
	<path fill-rule="evenodd" clip-rule="evenodd" fill="#FFFFFF" d="M148.638,184.75c-0.091-0.819-1.592-0.172-1.379-1.308
		c1.363-0.562,2.733-0.536,4.107-0.045c-0.013,0.207-0.018,0.414-0.016,0.623"/>
	<path fill-rule="evenodd" clip-rule="evenodd" fill="#FFFFFF" d="M151.366,183.397c-1.369,0.015-2.738,0.029-4.107,0.045
		c0.007-0.236,0.013-0.474,0.019-0.71c1.634,0.106,3.243,0.073,4.701-0.815C151.774,182.41,151.57,182.904,151.366,183.397z"/>
	<path fill-rule="evenodd" clip-rule="evenodd" fill="#D7D5D5" d="M77.646,172.385c-0.01,1.996-0.019,3.991-0.027,5.987"/>
	<path fill-rule="evenodd" clip-rule="evenodd" fill="#DDDCDC" d="M87.271,104.915c0.004,0.213,0.008,0.425,0.013,0.636"/>
	<path fill-rule="evenodd" clip-rule="evenodd" fill="#424242" d="M91.682,145.616c-2.979,0.539-4.1-0.37-2.71-3.146
		c1.107-2.213,0.755-5.028,2.875-6.816c1.58,1.986,1.671,4.547,2.641,6.771C95.851,145.555,94.283,146.19,91.682,145.616z"/>
	<g>
		<path fill-rule="evenodd" clip-rule="evenodd" fill="#FFFFFF" d="M76.603,112.836c-4.316-3.454-6.717-8.072-6.778-13.432
			c-0.201-17.37-0.295-34.749,0.008-52.116c0.165-9.447,7.958-17.497,17.367-18.955c1.68-0.261,3.39-0.452,5.085-0.457
			c14.089-0.036,28.178,0.021,42.267-0.062c2.432-0.015,3.572,0.607,3.385,3.229c-0.19,2.695-0.19,5.424,0.001,8.117
			c0.18,2.521-0.694,3.317-3.265,3.291c-12.043-0.119-24.087-0.057-36.131-0.047c-1.361,0.002-2.736-0.019-4.084,0.143
			c-4.085,0.486-7.123,3.318-7.74,7.371c-0.682,4.481-0.164,9.01-0.294,13.517c-0.062,2.175,1.526,1.815,2.844,1.815
			c10.907,0.01,21.816,0.099,32.721-0.059c2.785-0.039,3.866,0.62,3.606,3.52c-0.26,2.91-0.185,5.869-0.017,8.793
			c0.129,2.224-0.64,2.891-2.877,2.871c-11.134-0.1-22.27,0.026-33.402-0.102c-2.479-0.028-3.481,0.511-3.272,3.15
			c0.239,3.027,0.196,6.096,0.024,9.132c-0.311,5.494,1.775,9.401,7.083,11.394c5.7,1.334,11.489,0.508,17.236,0.654
			c2.077,0.055,3.797,0.508,5.07,2.184c0.545,0.719,1.216,1.494,0.805,2.428c-0.413,0.937-1.448,1.107-2.349,1.043
			c-2.941-0.207-5.896-0.319-8.818-0.715c-2.595-0.35-5.212-0.316-7.804-0.639c-1.874-0.232-3.447,0.387-4.417,1.923
			c-0.924,1.466,0.471,2.477,1.167,3.573c0.598,0.941,1.662,1.891,1.063,3.018c-0.612,1.156-2.029,0.725-3.129,0.754
			C86.168,118.318,81.116,116.333,76.603,112.836z"/>
		<path fill-rule="evenodd" clip-rule="evenodd" fill="#FCFCFB" d="M115.011,21.92c8.749,0,17.498,0.087,26.244-0.059
			c2.332-0.038,2.861,0.724,2.825,2.877c-0.118,6.879-0.136,13.765,0.006,20.643c0.048,2.356-0.653,3.056-3.056,3.038
			c-14.428-0.107-28.856-0.044-43.285-0.064c-1.861-0.002-3.988-0.139-4.74,1.833c-1.015,2.661-0.687,5.585-0.165,8.328
			c0.188,0.981,1.809,0.592,2.796,0.593c10.793,0.02,21.586,0.01,32.379,0.015c3.06,0.002,4.802,2.903,3.379,5.539
			c-0.35,0.647-0.86,0.614-1.416,0.61c-0.711-0.006-1.496-0.094-1.479-0.988c0.052-2.629-1.891-2.059-3.355-2.064
			c-10.793-0.033-21.587-0.098-32.379,0.039c-2.686,0.033-3.735-0.754-3.465-3.441c0.181-1.785,0.019-3.605,0.038-5.41
			c0.065-5.926,2.054-7.937,7.979-7.946c13.293-0.022,26.586-0.091,39.877,0.06c2.894,0.032,3.999-0.527,3.791-3.662
			c-0.312-4.717-0.158-9.473-0.045-14.208c0.048-1.985-0.476-2.764-2.644-2.751c-15.678,0.088-31.361-0.181-47.032,0.131
			c-15.238,0.303-25.523,11.715-24.781,26.771c0.059,1.19,0.432,2.146,1.056,3.126c0.791,1.238,0.387,2.44-0.651,3.329
			c-1.052,0.9-2.339,0.889-3.502,0.225c-1.104-0.629-1.713-1.924-1.137-2.904c1.968-3.354,0.928-7.062,1.534-10.566
			c2.284-13.199,13.247-22.865,26.691-23.051c8.177-0.114,16.358-0.021,24.538-0.021C115.011,21.932,115.011,21.926,115.011,21.92z"
			/>
		<path fill-rule="evenodd" clip-rule="evenodd" fill="#FFFFFF" d="M76.603,112.836c2.866,0.664,5.001,2.767,7.86,3.688
			c3.419,1.103,6.656,0.724,10.053,1c0.034-1.61-1.346-1.966-1.849-2.896c-0.693-1.283-2.817-2.358-1.612-3.969
			c1.367-1.827,3.093-3.469,5.959-3.102c5.816,0.744,11.665,1.232,17.502,1.803c0.39,0.037,0.799-0.133,1.411-0.244
			c-1.65-2.708-3.593-3.93-6.742-3.887c-4.851,0.064-9.764,0.714-14.567-0.572c-0.521-0.14-0.991-0.469-1.484-0.709
			c13.973-0.012,27.945,0.021,41.917-0.076c2.234-0.016,3.024,0.659,2.909,2.882c-0.157,3.038-0.114,6.093-0.013,9.136
			c0.066,1.965-0.533,2.857-2.688,2.848c-14.997-0.064-29.997,0.1-44.99-0.12C85.099,118.542,80.234,116.91,76.603,112.836z"/>
		<path fill-rule="evenodd" clip-rule="evenodd" fill="#F2F1F1" d="M92.466,95.845c0.233,0.425,0.467,0.852,0.699,1.277
			c1.258,1.27,2.868,1.098,4.449,1.096c14.128-0.007,28.256-0.011,42.385,0.01c1.226,0.002,2.488-0.265,3.679,0.277
			c0.551,8.103,0.09,16.216,0.255,24.32c0.046,2.255-1.576,1.769-2.841,1.771c-8.518,0.023-17.034,0.015-25.552,0.012
			c-2.498-0.002-4.996,0.023-7.495-0.017c-1.214-0.458-2.784-0.696-1.629-2.611c11.276-0.173,22.554-0.007,33.829-0.083
			c0.669-0.081,0.953-0.502,0.939-1.129c-0.131-6.54,0.378-13.089-0.266-19.622c-0.942-0.447-1.991-0.065-2.952-0.371
			c-6.99-0.185-8.457,0.075-14.461,0.116c-9.621-0.134-17.546,0.014-26.317,0.057c-1.746,0.009-3.308-0.505-4.921-0.951
			c-1.689-0.896-2.556-1.912-2.775-3.527c-0.583-4.283-1.037-7.938-0.396-12.994c2.948-0.44,8.888-0.096,13.068-0.133
			c8.395-0.074,17.832-0.181,26.221-0.18c0-1.938,0.578-1.895-0.25-5.5l-0.812-1.312c-0.01-2.018-0.553-1.513,0.688-2.5l0.625-0.492
			c1.39-0.737,2.472-0.304,3.582,0.954c1.015,1.146-0.055,2.509-0.81,3.505c-0.044,2.619-0.089,5.238-0.134,7.857
			c-1.17,0.657-2.446,0.324-3.667,0.328c-10.665,0.03-21.332,0.082-31.997-0.027c-2.676-0.029-3.801,0.882-3.508,3.528
			C92.334,91.609,91.709,93.765,92.466,95.845z"/>
		<path fill-rule="evenodd" clip-rule="evenodd" fill="#F1F0EF" d="M79.945,122.34c-10.597-4.868-16.014-13.315-16.501-24.685
			c-0.398-9.267-0.098-17.845-0.093-27.056c0.001-1.19-0.34-2.685,1.643-2.642c2.021,0.041,1.513,1.619,1.52,2.744
			c0.036,7.329,0.321,14.674-0.05,21.982c-0.628,12.328,3.877,21.639,15.074,27.445c0.957,0.558,1.976,0.953,3.071,1.149
			c1.417,0.557,2.911,0.649,4.41,0.724c1.027,0.481,1.893,1.056,1.433,2.407c-0.521,0.23-1.05,0.21-1.584,0.056
			C84.837,124.265,85.638,124.266,79.945,122.34z"/>
		<path fill-rule="evenodd" clip-rule="evenodd" fill="#717070" d="M89.04,124.208c0.454,0.004,0.907,0.01,1.361,0.015
			c0.159-0.157,0.304-0.435,0.479-0.455c5.543-0.638,11.087-1.245,16.564,0.453c11.434,0.062,22.869,0.109,34.304,0.2
			c1.414,0.012,2.06-0.427,2.022-1.923c-0.198-7.969,0.338-15.947-0.292-23.912c-0.192-0.145-0.253-0.286-0.184-0.424
			c0.068-0.136,0.137-0.203,0.204-0.203c1.437,0.609,0.967,1.896,0.972,2.935c0.04,6.976-0.036,13.95,0.056,20.924
			c0.027,2.196-0.486,3.278-3.001,3.266c-17.775-0.093-34.881-0.063-52.682-0.101c-1.097-0.003-2.297,0.215-3.206-0.716
			C86.763,123.734,87.899,123.831,89.04,124.208z"/>
		<path fill-rule="evenodd" clip-rule="evenodd" fill="#D3D2D2" d="M116.751,121.575c8.022,0.124,16.051-0.044,24.075-0.083
			c0.216,0.159,0.292,0.323,0.229,0.493c-0.063,0.173-0.129,0.259-0.197,0.259c-11.571,0.05-23.143,0.099-34.715,0.146
			c-0.399,0.409-0.867,0.781-1.444,0.76c-5.206-0.195-10.485,1.017-15.61-0.774c-1.615-0.198-3.325,0.149-4.805-0.825
			c-0.245-0.136-0.329-0.275-0.251-0.419c0.078-0.145,0.157-0.217,0.237-0.217"/>
		<path fill-rule="evenodd" clip-rule="evenodd" fill="#F1F0EF" d="M89.089,122.375c6.493,0.005,10.786,0.009,17.054,0.015
			c0.435,0.61,0.868,1.22,1.302,1.83c-5.682,0.175-11.362,0.385-17.043,0.002C89.963,123.607,89.526,122.992,89.089,122.375z"/>
	</g>
	<g>
		<g>
			<ellipse fill-rule="evenodd" clip-rule="evenodd" fill="#FFFFFF" cx="107.034" cy="175.625" rx="8.039" ry="8.419"/>
			<ellipse fill-rule="evenodd" clip-rule="evenodd" fill="#2B2B2B" cx="107.034" cy="175.788" rx="6.081" ry="6.271"/>
		</g>
		<g>
			<ellipse fill-rule="evenodd" clip-rule="evenodd" fill="#FFFFFF" cx="85.09" cy="175.646" rx="8.001" ry="8.435"/>
			<ellipse fill-rule="evenodd" clip-rule="evenodd" fill="#2B2B2B" cx="85.09" cy="175.809" rx="6.052" ry="6.283"/>
		</g>
	</g>
</g>
</svg>
