<?xml version="1.0" encoding="utf-8"?>
<!-- Generator: Adobe Illustrator 16.0.0, SVG Export Plug-In . SVG Version: 6.00 Build 0)  -->
<!DOCTYPE svg PUBLIC "-//W3C//DTD SVG 1.1//EN" "http://www.w3.org/Graphics/SVG/1.1/DTD/svg11.dtd">
<svg version="1.1" id="Layer_1" xmlns="http://www.w3.org/2000/svg" xmlns:xlink="http://www.w3.org/1999/xlink" x="0px" y="0px"
	 width="435.416px" height="413.079px" viewBox="0 0 435.416 413.079" enable-background="new 0 0 435.416 413.079"
	 xml:space="preserve">
<g>
	<path fill-rule="evenodd" clip-rule="evenodd" fill="#353535" d="M429.798,396.099c0,6.628-5.373,12-12,12H19.204
		c-6.627,0-12-5.372-12-12V16.939c0-6.627,5.373-12,12-12h398.594c6.627,0,12,5.373,12,12V396.099z"/>
	<ellipse fill-rule="evenodd" clip-rule="evenodd" fill="#353535" cx="215.631" cy="206.52" rx="208.427" ry="201.579"/>
	<path fill-rule="evenodd" clip-rule="evenodd" fill="#FFFFFF" d="M157.006,209.989c-9.173-6.159-14.271-14.395-14.403-23.951
		c-0.428-30.979-0.626-61.966,0.018-92.936c0.349-16.85,16.909-31.206,36.9-33.806c3.564-0.464,7.196-0.806,10.8-0.814
		c29.93-0.064,59.863,0.036,89.798-0.113c5.165-0.026,7.589,1.083,7.192,5.761c-0.408,4.804-0.408,9.669,0,14.473
		c0.384,4.498-1.478,5.917-6.938,5.87c-25.581-0.214-51.176-0.103-76.762-0.083c-2.892,0.002-5.809-0.036-8.675,0.254
		c-8.679,0.865-15.136,5.915-16.443,13.144c-1.448,7.992-0.35,16.067-0.626,24.106c-0.133,3.872,3.246,3.233,6.044,3.235
		c23.171,0.015,46.351,0.175,69.518-0.104c5.916-0.07,8.211,1.104,7.661,6.273c-0.553,5.193-0.396,10.469-0.038,15.684
		c0.272,3.964-1.358,5.154-6.115,5.117c-23.652-0.177-47.31,0.05-70.962-0.18c-5.265-0.053-7.396,0.911-6.951,5.618
		c0.509,5.398,0.417,10.868,0.054,16.283c-0.66,9.798,3.771,16.765,15.049,20.318c12.107,2.378,24.41,0.903,36.615,1.169
		c4.417,0.096,8.066,0.901,10.774,3.893c1.154,1.28,2.581,2.665,1.708,4.332c-0.877,1.667-3.079,1.973-4.991,1.857
		c-6.247-0.368-12.524-0.571-18.733-1.276c-5.511-0.622-11.072-0.562-16.579-1.139c-3.978-0.415-7.325,0.692-9.382,3.432
		c-1.963,2.613,1.001,4.417,2.479,6.37c1.27,1.678,3.53,3.374,2.257,5.383c-1.299,2.061-4.31,1.293-6.647,1.342
		C177.326,219.763,166.594,216.223,157.006,209.989z"/>
	<path fill-rule="evenodd" clip-rule="evenodd" fill="#FCFCFB" d="M238.604,47.861c18.589,0,37.174,0.154,55.759-0.104
		c4.948-0.068,6.072,1.289,6,5.13c-0.251,12.266-0.289,24.545,0.013,36.811c0.103,4.204-1.388,5.449-6.494,5.419
		c-30.649-0.19-61.308-0.082-91.961-0.118c-3.952,0-8.471-0.246-10.067,3.27c-2.155,4.746-1.461,9.962-0.35,14.851
		c0.396,1.751,3.842,1.056,5.941,1.061c22.928,0.032,45.856,0.013,68.785,0.025c6.503,0,10.204,5.176,7.18,9.877
		c-0.745,1.151-1.826,1.094-3.011,1.085c-1.507-0.008-3.177-0.166-3.139-1.758c0.106-4.688-4.02-3.674-7.133-3.683
		c-22.929-0.06-45.861-0.175-68.79,0.066c-5.707,0.062-7.934-1.342-7.359-6.133c0.384-3.187,0.039-6.43,0.077-9.648
		c0.141-10.569,4.365-14.155,16.954-14.172c28.238-0.038,56.482-0.162,84.717,0.107c6.149,0.056,8.496-0.942,8.058-6.53
		c-0.665-8.413-0.337-16.895-0.099-25.337c0.107-3.541-1.009-4.928-5.617-4.906c-33.302,0.158-66.622-0.323-99.92,0.235
		c-32.373,0.537-54.225,20.891-52.646,47.741c0.123,2.122,0.918,3.827,2.244,5.573c1.68,2.212,0.819,4.354-1.387,5.938
		c-2.233,1.604-4.969,1.583-7.438,0.401c-2.346-1.124-3.641-3.434-2.417-5.182c4.184-5.981,1.972-12.593,3.262-18.843
		c4.851-23.541,28.141-40.774,56.703-41.108c17.375-0.201,34.759-0.036,52.134-0.036C238.604,47.881,238.604,47.87,238.604,47.861z"
		/>
	<path fill-rule="evenodd" clip-rule="evenodd" fill="#FCFCFC" d="M182.672,267.899c8.074-0.415,9.607,1.977,11.541,6.847
		c4.838,12.183,10.246,24.202,15.301,36.325c0.822,1.968,4.361,5.498,0.034,6.242c-8.938,1.536-11.613-1.073-12.546-3.255
		c-0.485-1.133-1.142-2.27-1.286-3.437c-0.507-4.186-3.496-5.286-8.019-4.919c-2.151,0.178-4.37,0.088-6.504-0.013
		c-8.801-0.41-9.073-0.5-12.542,7.381c-1.548,3.516-1.299,4.304-12.872,4.095c-2.811-0.052-1.418-2.83-0.846-4.17
		c5.886-13.796,12.065-27.506,17.78-41.349C174.747,266.72,177.526,267.873,182.672,267.899z"/>
	<path fill-rule="evenodd" clip-rule="evenodd" fill="#FFFFFF" d="M157.006,209.989c6.088,1.184,10.623,4.932,16.7,6.577
		c7.262,1.964,14.14,1.288,21.354,1.78c0.073-2.868-2.857-3.505-3.926-5.161c-1.474-2.289-5.983-4.203-3.424-7.077
		c2.904-3.257,6.57-6.187,12.66-5.532c12.354,1.326,24.781,2.2,37.183,3.214c0.826,0.068,1.695-0.233,2.998-0.435
		c-3.509-4.829-7.636-7.007-14.326-6.93c-10.306,0.117-20.739,1.271-30.947-1.021c-1.107-0.248-2.108-0.836-3.151-1.265
		c29.683-0.02,59.37,0.038,89.048-0.137c4.749-0.026,6.431,1.175,6.184,5.141c-0.332,5.417-0.242,10.864-0.025,16.292
		c0.141,3.505-1.133,5.095-5.711,5.077c-31.867-0.115-63.73,0.176-95.585-0.216C175.054,220.165,164.723,217.257,157.006,209.989z"
		/>
	<path fill-rule="evenodd" clip-rule="evenodd" fill="#FCFBFB" d="M241.249,267.869c5.422,0.182,12.699,1.752,16.732,8.359
		c1.261,2.066,3.467,5.276,0.025,6.242c-3.155,0.887-8.397,2.485-10.685-1.806c-2.525-4.746-7.027-4.853-12.039-4.455
		c-3.084,0.241-4.94,1.816-5.388,4.16c-0.413,2.176,1.014,3.996,3.548,4.701c4.318,1.203,8.722,2.223,13.134,3.187
		c11.153,2.434,15.685,6.744,15.391,14.791c-0.285,7.845-5.43,12.414-16.229,14.396c-11.184,2.058-22.362-0.993-26.975-7.586
		c-1.883-2.682-4.629-6.644-0.584-8.357c3.305-1.401,9.144-2.946,11.763,3.005c2.143,4.863,11.034,6.351,16.238,3.502
		c4.216-2.306,3.824-7.197-1.192-9.248c-3.607-1.477-7.738-2.069-11.639-3.052c-13.053-3.287-17.746-7.933-16.132-15.965
		C218.717,272.271,226.795,267.777,241.249,267.869z"/>
	<path fill-rule="evenodd" clip-rule="evenodd" fill="#F2F1F1" d="M190.703,179.688c0.498,0.759,0.992,1.523,1.491,2.282
		c2.67,2.263,6.09,1.955,9.449,1.955c30.016-0.015,60.034-0.023,90.05,0.013c2.602,0.005,5.284-0.472,7.814,0.496
		c1.171,14.449,0.191,28.917,0.541,43.371c0.098,4.021-3.348,3.153-6.035,3.156c-18.095,0.044-36.189,0.027-54.285,0.023
		c-5.306-0.005-10.616,0.038-15.923-0.032c-2.576-0.816-5.915-1.242-3.462-4.656c23.955-0.308,47.918-0.013,71.873-0.147
		c1.418-0.144,2.022-0.894,1.993-2.011c-0.277-11.666,0.805-23.346-0.562-34.992c-2.001-0.8-4.232-0.118-6.272-0.665
		c-10.246-0.455-20.488-0.803-30.727,0.208c-18.636-0.571-37.271,0.027-55.907,0.104c-3.714,0.013-7.027-0.902-10.455-1.697
		c-3.411-1.153-5.43-3.41-5.898-6.293c-1.239-7.637-1.831-15.311,0.281-22.939c8.854-1.126,17.763-0.402,26.642-0.468
		c17.836-0.133,35.675-0.041,53.493-0.041c4.421-1.812,4.723-5.003,0.945-10.165l0.021,0.106c-0.592-2.068-1.039-4.133,0.298-6.135
		l0.056-0.066c2.955-1.316,5.928-1.552,8.287,0.69c2.151,2.049,0.631,3.98-0.975,5.755c-0.094,4.673-0.184,9.345-0.281,14.014
		c-2.487,1.173-5.195,0.577-7.794,0.583c-22.655,0.054-45.32,0.147-67.977-0.049c-5.685-0.049-8.074,1.577-7.452,6.293
		C190.427,172.136,189.103,175.982,190.703,179.688z"/>
	<path fill-rule="evenodd" clip-rule="evenodd" fill="#F3F2F2" d="M144.521,289.526c0.736,2.021,0.837,4.044-0.032,6.057
		c-6.682,2.466-13.712,0.849-20.571,1.153c-7.208,0.316-10.271,4.082-7.719,9.817c0.958,2.147,2.958,1.676,4.742,1.688
		c7.681,0.063,15.365,0.11,23.041-0.007c3.99-0.062,3.974,1.937,3.995,4.298c0.023,2.434-0.171,4.32-4.104,4.198
		c-12.917-0.395-25.863,0.605-38.766-0.553l-0.023,0.058c-1.282-14.427-0.217-28.874-0.594-43.309
		c-0.064-2.518,1.269-3.794,4.208-3.83c11.087-0.141,22.173-0.106,33.258-0.019c3.307,0.025,4.535,1.391,4.616,4.158
		c0.089,3.086-1.663,3.705-4.849,3.656c-6.505-0.107-13.021,0.119-19.518-0.077c-5.541-0.169-6.177,2.447-6.211,6.144
		c-0.028,3.773,0.792,6.172,6.283,6.054C129.688,288.86,137.133,288.648,144.521,289.526z"/>
	<path fill-rule="evenodd" clip-rule="evenodd" fill="#FBFAFA" d="M273.641,267.88c5.042-0.165,7.057,1.455,9.045,4.719
		c2.509,4.108,5.745,7.908,8.241,12.021c2.495,4.107,4.151,2.729,6.068-0.222c2.751-4.235,5.583-8.435,8.377-12.653
		c1.047-1.585,1.993-3.509,4.548-3.41c3.492,0.135,5.787-0.396,10.285,0.515c2.712,0.55-2.53,6.003-3.999,8.206
		c-2.33,3.511-4.276,5.971-7.146,9.174c-6.891,7.697-10.847,15.988-9.003,25.761c0.788,4.158-1.286,5.509-6.4,5.525
		c-5.217,0.016-7.069-1.491-6.324-5.586c1.733-9.523-1.959-17.663-8.691-25.228c-3.433-3.855-6.188-8.138-9.131-12.285
		c-1.188-1.674-3.761-3.44-2.563-5.3C268.177,267.207,270.979,267.803,273.641,267.88z"/>
	<path fill-rule="evenodd" clip-rule="evenodd" fill="#F1F0EF" d="M164.107,226.937c-22.516-8.68-34.022-23.743-35.058-44.019
		c-0.82-16.057-0.208-32.162-0.196-48.249c0-2.12-0.724-4.786,3.488-4.712c4.293,0.079,3.215,2.892,3.226,4.898
		c0.077,13.069,0.686,26.164-0.102,39.201c-1.333,21.982,8.236,38.586,32.024,48.941c2.034,0.994,4.197,1.699,6.526,2.048
		c3.011,0.993,6.185,1.158,9.366,1.29c2.185,0.859,4.024,1.883,3.045,4.293c-1.107,0.41-2.231,0.374-3.364,0.101
		C176.459,230.452,170.548,227.774,164.107,226.937z"/>
	<path fill-rule="evenodd" clip-rule="evenodd" fill="#DCDBDB" d="M138.257,337.719c-11.668,0.297-11.668,0.297-11.668,10.026
		c0,5.021,0.034,10.043-0.028,15.064c-0.019,1.778,0.2,3.988-3.062,3.804c-2.657-0.149-2.508-2.13-2.523-3.694
		c-0.064-6.428-0.317-12.868,0.06-19.281c0.258-4.383-1.239-6.377-6.837-5.881c-2.568,0.227-6.331,1.005-5.841-3.147
		c9.397-2.19,18.975-0.676,28.46-0.806C140.005,333.761,139.647,335.91,138.257,337.719z"/>
	<path fill-rule="evenodd" clip-rule="evenodd" fill="#E0DFDF" d="M144.521,289.526c-7.919,0.007-15.838-0.145-23.746,0.073
		c-4.78,0.133-5.847-1.879-5.426-5.208c0.416-3.297-1.767-7.9,5.255-8.09c6.501-0.171,13.012-0.054,19.517-0.079
		c2.671-0.009,5.606,0.273,5.507-3.133c-0.085-2.985-2.686-2.849-5.134-2.853c-9.88-0.014-19.767,0.141-29.643-0.077
		c-4.691-0.101-5.604,1.703-5.587,5.111c0.066,13.652-0.098,27.31-0.179,40.965c-2.176-4.638-0.831-9.469-0.973-14.193
		c-0.298-9.645,0.019-19.301-0.147-28.949c-0.062-3.432,0.907-5.142,5.62-5.03c10.847,0.246,21.712,0.25,32.562,0.018
		c5.044-0.109,5.221,2.196,5.349,5.325c0.145,3.5-1.631,4.547-5.6,4.434c-6.504-0.188-13.036,0.16-19.533-0.106
		c-5.7-0.231-5.138,2.723-5.321,5.865c-0.194,3.338,0.995,4.744,5.247,4.58c6.018-0.235,12.059-0.075,18.089,0.025
		C141.864,288.226,143.906,287.454,144.521,289.526z"/>
	<path fill-rule="evenodd" clip-rule="evenodd" fill="#717070" d="M183.43,230.269c0.962,0.006,1.925,0.017,2.892,0.025
		c0.336-0.282,0.643-0.776,1.018-0.812c11.775-1.137,23.555-2.222,35.189,0.808c24.291,0.109,48.587,0.195,72.883,0.357
		c3.002,0.021,4.373-0.761,4.292-3.428c-0.421-14.211,0.72-28.438-0.621-42.643c-0.405-0.26-0.537-0.513-0.384-0.756
		c0.141-0.241,0.29-0.361,0.431-0.361c3.053,1.086,2.053,3.379,2.061,5.233c0.086,12.437-0.072,24.876,0.119,37.312
		c0.061,3.917-1.03,5.847-6.375,5.821c-37.306-0.165-74.615-0.113-111.921-0.18c-2.334-0.004-4.88,0.387-6.815-1.273
		C178.591,229.422,181.002,229.595,183.43,230.269z"/>
	<path fill-rule="evenodd" clip-rule="evenodd" fill="#EDEDED" d="M105.108,316.179c12.005-0.032,24.008-0.054,36.009-0.105
		c2.857-0.011,5.944,0.385,6.104-3.338c0.175-4.04-3.011-3.842-6.243-3.835c-6.72,0.017-13.453-0.174-20.163,0.047
		c-6.846,0.222-5.364-3.778-5.454-6.978c-0.087-3.16-0.881-6.633,5.36-6.451c7.913,0.235,15.844,0.064,23.767,0.064
		c0.016,2.656-2.414,1.982-4.137,2.002c-5.53,0.06-11.083,0.207-16.601-0.074c-4.685-0.237-6.882,0.581-7.014,5.135
		c-0.145,4.849,2.169,5.725,7.195,5.52c6.961-0.282,13.954,0.027,20.933-0.103c3.609-0.068,4.67,1.356,4.354,4.049
		c-0.262,2.228,0.994,5.272-3.643,5.264c-13.226-0.025-26.449-0.146-39.674-0.275C105.634,317.095,105.374,316.499,105.108,316.179z
		"/>
	<path fill-rule="evenodd" clip-rule="evenodd" fill="#D3D2D2" d="M183.532,227.003c-3.433-0.356-7.062,0.263-10.205-1.473
		c-0.524-0.245-0.7-0.495-0.534-0.75c0.166-0.256,0.332-0.387,0.504-0.387c22.947,2.579,46.003,0.881,69.004,1.178
		c17.044,0.222,34.1-0.079,51.151-0.146c0.455,0.282,0.617,0.575,0.485,0.878c-0.132,0.309-0.272,0.462-0.422,0.462
		c-24.581,0.088-49.166,0.178-73.747,0.263c-0.852,0.727-1.844,1.392-3.07,1.353C205.639,228.031,194.417,230.191,183.532,227.003z"
		/>
	<path fill-rule="evenodd" clip-rule="evenodd" fill="#D0CFCE" d="M287.916,187.912c1.916,0.081,3.832,0.163,5.749,0.242
		c0.345,0.312,0.435,0.598,0.272,0.86c-0.158,0.253-0.303,0.379-0.438,0.379c-31.017-0.097-62.027-0.182-93.048-0.3
		c-3.547-0.013-7.299,0.509-10.165-1.998c22.247,2.383,44.588-0.972,66.84,0.821C267.389,187.288,277.656,187.295,287.916,187.912z"
		/>
	<path fill-rule="evenodd" clip-rule="evenodd" fill="#D0CFCE" d="M299.129,183.459c-0.056,0.37-0.068,0.741-0.047,1.117
		c-32.72,0.005-65.438,0.032-98.162-0.021c-3.168-0.005-6.984,0.987-8.726-2.586c3.364,1.243,6.92,1.318,10.535,1.318
		C234.861,183.313,266.997,183.393,299.129,183.459z"/>
	<path fill-rule="evenodd" clip-rule="evenodd" fill="#D6D6D5" d="M190.703,179.688c-3.164-4.938-1.554-10.217-1.115-15.281
		c0.302-3.566,4.557-2.867,7.576-2.87c25.33-0.021,50.66,0.005,75.991,0.018c-1.674,2.765-4.706,1.327-7.019,1.34
		c-22.916,0.133-45.84,0.184-68.756,0.021c-4.847-0.036-7.15,0.882-6.673,5.327C191.116,172.028,190.737,175.871,190.703,179.688z"
		/>
	<path fill-rule="evenodd" clip-rule="evenodd" fill="#D6D6D5" d="M267.525,157.946c-27.622-0.027-55.239-0.056-82.856-0.083
		c2.228-1.845,5.029-0.906,7.529-0.915c22.396-0.062,44.792,0.013,67.192-0.006c2.633-0.002,5.265-0.3,7.9-0.46
		C268.104,156.889,268.181,157.376,267.525,157.946z"/>
	<path fill-rule="evenodd" clip-rule="evenodd" fill="#FFFFFF" d="M254.689,334.41c0.792-0.006,1.576-0.013,2.363-0.019
		c2.219,5.656,0.447,11.464,0.954,17.187c0.298,3.39-0.379,6.817,0.512,10.191c-0.273,2.297-1.154,3.861-4.425,2.575
		C253.834,354.36,252.654,344.364,254.689,334.41z"/>
	<path fill-rule="evenodd" clip-rule="evenodd" fill="#E8E7E7" d="M254.319,364.415c2.026-0.088,2.883-1.14,3.159-2.665
		c4.327,1.133,8.786,0.761,13.215,0.863c2.453,0.062,5.319-0.73,6.822,1.845c-0.034,2.79-2.56,2.284-4.544,2.286
		c-6.106,0.013-12.218-0.066-18.325-0.104C253.459,366.007,253.672,365.231,254.319,364.415z"/>
	<path fill-rule="evenodd" clip-rule="evenodd" fill="#7F7E7E" d="M277.516,364.458c-3.509-1.947-7.457-0.843-11.204-1.069
		c-3.054-0.189-6.294,0.442-8.833-1.639c-0.14-9.12-0.285-18.238-0.426-27.358c3.391,0.846,2.121,3.232,2.177,5.002
		c0.17,5.37,0.498,10.778-0.06,16.114c-0.575,5.49,2.061,7.146,8.172,6.494c2.577-0.273,5.251-0.04,7.866,0.092
		C276.855,362.176,277.81,362.949,277.516,364.458z"/>
	<path fill-rule="evenodd" clip-rule="evenodd" fill="#F1F0EF" d="M293.499,189.394c0.055-0.415,0.11-0.827,0.166-1.239
		c2.908,7.737,1.009,15.672,1.153,23.501c0.094,5.009,1.819,10.249-1.303,15.11c-0.021-0.446-0.043-0.894-0.063-1.34
		C293.469,213.414,293.481,201.402,293.499,189.394z"/>
	<path fill-rule="evenodd" clip-rule="evenodd" fill="#7F7E7E" d="M254.319,364.415c0.11,0.739,0.217,1.482,0.327,2.225
		c-1.478-0.216-1.844-1.154-1.848-2.176c-0.034-9.338-0.038-18.679-0.021-28.017c0.004-1.023,0.341-1.969,1.912-2.037
		C253.241,344.398,253.863,354.408,254.319,364.415z"/>
	<path fill-rule="evenodd" clip-rule="evenodd" fill="#4F4F4F" d="M138.257,337.719c0.943-2.609-0.296-3.71-3.479-3.607
		c-8.802,0.282-17.639-0.592-26.42,0.498c0.779-2.097,2.926-1.719,4.747-1.727c7.406-0.045,14.807-0.013,22.211-0.02
		c1.972,0,3.927,0.094,4.874,1.844C141.063,336.321,140.418,337.392,138.257,337.719z"/>
	<path fill-rule="evenodd" clip-rule="evenodd" fill="#E6E6E5" d="M203.521,341.973c0,5.636,0.005,11.269,0.005,16.903
		C200.209,353.243,199.983,347.608,203.521,341.973z"/>
	<path fill-rule="evenodd" clip-rule="evenodd" fill="#DDDCDC" d="M183.43,230.269c-2.41,0.034-4.82,0.068-7.232,0.104
		c-4.604,0.267-8.104-2.182-12.09-3.437C170.836,226.883,177.128,228.6,183.43,230.269z"/>
	<path fill-rule="evenodd" clip-rule="evenodd" fill="#E2E1E0" d="M273.437,147.54c3.036-6.46-1.811-6.71-7.312-6.445
		c3.113-2.942,6.584-2.562,9.032,0.196C276.941,143.298,277.972,146.228,273.437,147.54z"/>
	<path fill-rule="evenodd" clip-rule="evenodd" fill="#ECEBEB" d="M267.525,157.946c-0.077-0.485-0.153-0.979-0.234-1.464
		c-0.226-3.13,0.315-6.349-1.542-9.293C271.052,150.236,269.237,154.098,267.525,157.946z"/>
	<path fill-rule="evenodd" clip-rule="evenodd" fill="#DDDCDC" d="M173.297,224.394c0.005,0.381,0.016,0.757,0.028,1.137
		c-2.336-0.22-4.466-0.769-5.835-2.532C169.781,222.437,171.397,223.823,173.297,224.394z"/>
	<path fill-rule="evenodd" clip-rule="evenodd" fill="#E2E1E0" d="M266.068,141.161c-0.098,2.043-0.2,4.09-0.298,6.135
		C263.258,145.161,263.611,143.125,266.068,141.161z"/>
	<path fill-rule="evenodd" clip-rule="evenodd" fill="#E6E6E5" d="M209.292,336.103c-0.498,2.19-2.12,3.471-4.676,3.99
		C205.451,338.172,207.053,336.879,209.292,336.103z"/>
	<path fill-rule="evenodd" clip-rule="evenodd" fill="#424242" d="M182.667,296.977c-6.733,0.002-8.712-0.658-5.759-5.612
		c2.355-3.944,2.42-6.881,6.108-12.154c2.866,4.137,3.552,8.107,5.612,12.077C191.521,296.869,188.268,296.912,182.667,296.977z"/>
	<path fill-rule="evenodd" clip-rule="evenodd" fill="#FBFBFB" d="M247.999,218.308c-10.127,0-20.258,0.025-30.39-0.023
		c-2.325-0.013-5.127,0.656-6.609-1.459c-1.499-2.14-6.247-3.415-4.531-6.091c1.32-2.047,5.213-0.43,8.032-0.164
		c10.948,1.034,21.915,2.182,32.91,2.523c4.276,0.133,8.011-2.994,10.276-5.892c2.027-2.592-1.537-4.609-3.475-6.575
		c-1.172-1.186-3.73-2.068-2.922-3.795c0.954-2.028,3.727-1.402,5.813-1.415c7.239-0.049,14.479,0.107,21.706-0.066
		c4.182-0.098,5.924,0.937,6.107,4.738c0.915,18.221,1.047,18.219-21,18.219C258.611,218.308,253.31,218.308,247.999,218.308z"/>
	<path fill-rule="evenodd" clip-rule="evenodd" fill="#F1F0EF" d="M183.532,227.003c12.073,0.007,24.154,0.013,36.232,0.021
		c0.92,1.09,1.844,2.178,2.764,3.265c-12.069,0.312-24.138,0.687-36.207,0.005C185.393,229.193,184.465,228.1,183.532,227.003z"/>
	<path fill-rule="evenodd" clip-rule="evenodd" fill="#D6D5D5" d="M287.916,187.912c-10.26,0-20.522,0.005-30.786,0.005
		C267.389,186.353,277.656,186.356,287.916,187.912z"/>
	<path fill-rule="evenodd" clip-rule="evenodd" fill="#E3E2E2" d="M206.767,355.639c1.726,2.124,3.445,4.248,5.171,6.372
		C207.977,361.147,206.234,359.032,206.767,355.639z"/>
	<path fill-rule="evenodd" clip-rule="evenodd" fill="#E3E2E2" d="M206.732,345.071c-0.055,3.221-0.114,6.443-0.174,9.663
		C204.348,351.484,204.221,348.262,206.732,345.071z"/>
	<g>
		<path fill-rule="evenodd" clip-rule="evenodd" fill="#FFFFFF" d="M304.593,331.504c2.261,0.516,3.173,1.223,4.978,2.823
			c1.61,1.425,4.442,4.351,1.896,5.93c-2.181,1.347-3.262-1.295-4.36-2.417c-4.055-4.139-7.823-4.16-12.363-1.115
			c-1.656,2.152-1.188,4.825,0,7.136c3.615,4.351,9.071,3.07,13.61,5.423c3.961,2.056,7.087,3.731,6.708,8.794
			c-0.396,5.261-2.087,11.268-16.988,10.079c-0.473-0.395-0.396-3.408-0.426-4.021c0.132-1.322,5.272,2.534,10.404-1.468
			c3.691-4.336,2.674-7.877-1.908-10.17c-3.539-1.275-5.242-1.313-8.253-2.322c-5.392-1.377-5.852-2.411-7.892-4.832
			c-0.895-2.983-1.571-5.137-0.038-8.958c0.971-1.806,1.478-2.291,3.824-3.959C295.769,331.59,297.084,330.017,304.593,331.504z"/>
		<path fill-rule="evenodd" clip-rule="evenodd" fill="#FFFFFF" d="M301.245,368.266c-6.712,0.389-10.881-2.816-12.878-9.039
			c-0.447-1.383-0.571-2.838,0.996-3.577c1.771-0.836,3.398-0.227,3.829,1.635c0.732,3.169,2.691,5.214,5.284,6.87
			c0.371,0.335,0.729,0.684,1.078,1.045C300.397,366.073,301.905,366.582,301.245,368.266z"/>
	</g>
	<g>
		<g>
			<ellipse fill-rule="evenodd" clip-rule="evenodd" fill="#FFFFFF" cx="217.878" cy="349.974" rx="17.528" ry="18.422"/>
			<path fill-rule="evenodd" clip-rule="evenodd" fill="#2B2B2B" d="M231.135,350.33c0,7.578-5.932,13.722-13.257,13.722
				c-7.32,0-13.257-6.144-13.257-13.722c0-7.579,5.937-13.723,13.257-13.723C225.203,336.607,231.135,342.751,231.135,350.33z"/>
		</g>
		<g>
			<ellipse fill-rule="evenodd" clip-rule="evenodd" fill="#FFFFFF" cx="170.032" cy="350.021" rx="17.447" ry="18.457"/>
			<ellipse fill-rule="evenodd" clip-rule="evenodd" fill="#2B2B2B" cx="170.03" cy="350.378" rx="13.195" ry="13.748"/>
		</g>
	</g>
</g>
</svg>
