<?xml version="1.0" encoding="utf-8"?>
<!-- Generator: Adobe Illustrator 16.0.0, SVG Export Plug-In . SVG Version: 6.00 Build 0)  -->
<!DOCTYPE svg PUBLIC "-//W3C//DTD SVG 1.1//EN" "http://www.w3.org/Graphics/SVG/1.1/DTD/svg11.dtd">
<svg version="1.1" id="Layer_1" xmlns="http://www.w3.org/2000/svg" xmlns:xlink="http://www.w3.org/1999/xlink" x="0px" y="0px"
	 width="144.404px" height="188.359px" viewBox="0 0 144.404 188.359" enable-background="new 0 0 144.404 188.359"
	 xml:space="preserve">
<g>
	<path fill-rule="evenodd" clip-rule="evenodd" fill="#353535" d="M138.436,167.606c0,8.189-5.948,14.828-13.286,14.828H19.414
		c-7.337,0-13.286-6.639-13.286-14.828V21.375c0-8.19,5.949-14.828,13.286-14.828h105.735c7.338,0,13.286,6.638,13.286,14.828
		V167.606z"/>
	<path fill-rule="evenodd" clip-rule="evenodd" fill="#FFFFFF" d="M47.173,95.811c-4.207-2.814-6.545-6.578-6.605-10.945
		c-0.196-14.157-0.287-28.318,0.008-42.472c0.16-7.7,7.755-14.261,16.923-15.449c1.636-0.212,3.301-0.368,4.954-0.372
		c13.727-0.029,27.454,0.017,41.183-0.052c2.37-0.012,3.481,0.495,3.299,2.633c-0.187,2.195-0.187,4.419,0,6.614
		c0.176,2.056-0.677,2.704-3.181,2.683c-11.733-0.098-23.471-0.047-35.205-0.038c-1.326,0.001-2.665-0.017-3.979,0.116
		c-3.98,0.396-6.941,2.703-7.542,6.007c-0.664,3.652-0.16,7.343-0.287,11.017c-0.061,1.77,1.488,1.478,2.771,1.479
		c10.628,0.007,21.258,0.08,31.883-0.048c2.714-0.032,3.767,0.505,3.514,2.867c-0.254,2.373-0.181,4.784-0.017,7.167
		c0.125,1.812-0.623,2.355-2.805,2.339c-10.848-0.081-21.697,0.022-32.545-0.082c-2.415-0.024-3.393,0.416-3.188,2.567
		c0.233,2.467,0.191,4.967,0.024,7.441c-0.303,4.478,1.729,7.661,6.901,9.285c5.554,1.087,11.195,0.413,16.794,0.534
		c2.024,0.044,3.698,0.412,4.94,1.779c0.53,0.585,1.185,1.218,0.784,1.979c-0.403,0.762-1.412,0.901-2.289,0.849
		c-2.865-0.168-5.745-0.261-8.592-0.583c-2.528-0.284-5.078-0.257-7.604-0.521c-1.825-0.189-3.359,0.316-4.304,1.568
		c-0.9,1.194,0.459,2.019,1.137,2.911c0.582,0.767,1.62,1.542,1.036,2.46c-0.597,0.941-1.978,0.591-3.049,0.613
		C56.492,100.278,51.57,98.66,47.173,95.811z"/>
	<path fill-rule="evenodd" clip-rule="evenodd" fill="#FCFCFB" d="M84.597,21.719c8.524,0,17.049,0.07,25.571-0.048
		c2.271-0.031,2.786,0.589,2.752,2.345c-0.115,5.605-0.132,11.217,0.006,16.822c0.047,1.921-0.637,2.49-2.978,2.477
		c-14.058-0.087-28.117-0.037-42.176-0.054c-1.813,0-3.885-0.112-4.618,1.494c-0.988,2.169-0.67,4.553-0.16,6.787
		c0.182,0.8,1.762,0.482,2.725,0.484c10.516,0.015,21.032,0.006,31.548,0.012c2.981,0,4.68,2.365,3.292,4.514
		c-0.341,0.526-0.838,0.5-1.381,0.496c-0.691-0.004-1.457-0.076-1.439-0.804c0.049-2.143-1.843-1.679-3.271-1.683
		c-10.516-0.027-21.032-0.08-31.548,0.03c-2.617,0.028-3.639-0.613-3.375-2.803c0.175-1.456,0.018-2.938,0.035-4.409
		c0.064-4.83,2.002-6.469,7.775-6.477c12.951-0.018,25.904-0.074,38.854,0.049c2.82,0.025,3.896-0.431,3.694-2.984
		c-0.305-3.845-0.154-7.721-0.044-11.579c0.048-1.618-0.463-2.252-2.576-2.242C92.008,24.219,76.727,24,61.456,24.254
		C46.608,24.5,36.587,33.801,37.311,46.072c0.057,0.97,0.421,1.749,1.029,2.547c0.771,1.011,0.376,1.99-0.636,2.714
		c-1.024,0.733-2.279,0.724-3.411,0.184c-1.076-0.514-1.67-1.569-1.108-2.368c1.919-2.733,0.904-5.755,1.496-8.611
		c2.225-10.758,12.906-18.634,26.005-18.786c7.969-0.092,15.941-0.017,23.911-0.017C84.597,21.728,84.597,21.723,84.597,21.719z"/>
	<path fill-rule="evenodd" clip-rule="evenodd" fill="#FCFCFC" d="M58.944,122.276c3.702-0.189,4.405,0.903,5.293,3.129
		c2.218,5.567,4.699,11.061,7.017,16.601c0.377,0.899,2,2.513,0.016,2.853c-4.1,0.702-5.326-0.49-5.753-1.487
		c-0.223-0.518-0.523-1.037-0.59-1.57c-0.233-1.913-1.604-2.416-3.679-2.248c-0.985,0.081-2.003,0.04-2.981-0.006
		c-4.037-0.188-4.162-0.229-5.753,3.373c-0.71,1.606-0.596,1.967-5.903,1.871c-1.289-0.023-0.65-1.293-0.388-1.905
		c2.699-6.305,5.533-12.57,8.154-18.896C55.31,121.737,56.584,122.264,58.944,122.276z"/>
	<path fill-rule="evenodd" clip-rule="evenodd" fill="#FFFFFF" d="M47.173,95.811c2.792,0.541,4.872,2.254,7.659,3.006
		c3.33,0.897,6.484,0.589,9.794,0.813c0.033-1.311-1.311-1.602-1.801-2.358c-0.676-1.046-2.745-1.921-1.571-3.234
		c1.332-1.488,3.014-2.827,5.807-2.528c5.667,0.606,11.365,1.006,17.054,1.469c0.379,0.031,0.776-0.106,1.375-0.198
		c-1.609-2.207-3.502-3.202-6.57-3.167c-4.727,0.054-9.513,0.581-14.194-0.467c-0.508-0.113-0.966-0.382-1.445-0.578
		c13.614-0.009,27.229,0.018,40.841-0.062c2.178-0.012,2.948,0.537,2.836,2.35c-0.152,2.476-0.111,4.965-0.012,7.445
		c0.064,1.602-0.521,2.328-2.62,2.32c-14.614-0.053-29.229,0.08-43.838-0.099C55.45,100.461,50.712,99.132,47.173,95.811z"/>
	<path fill-rule="evenodd" clip-rule="evenodd" fill="#FCFBFB" d="M85.81,122.262c2.486,0.083,5.823,0.801,7.673,3.82
		c0.578,0.944,1.59,2.411,0.012,2.853c-1.446,0.405-3.852,1.136-4.899-0.825c-1.158-2.169-3.223-2.218-5.522-2.036
		c-1.414,0.11-2.265,0.83-2.47,1.901c-0.19,0.994,0.465,1.826,1.626,2.148c1.981,0.55,4,1.016,6.023,1.456
		c5.115,1.112,7.193,3.082,7.06,6.76c-0.131,3.585-2.49,5.673-7.443,6.579c-5.13,0.94-10.256-0.454-12.372-3.467
		c-0.862-1.226-2.123-3.036-0.268-3.819c1.516-0.641,4.194-1.347,5.396,1.373c0.981,2.223,5.06,2.902,7.447,1.601
		c1.934-1.054,1.754-3.289-0.547-4.227c-1.654-0.675-3.55-0.945-5.339-1.395c-5.986-1.502-8.138-3.625-7.398-7.296
		C75.476,124.274,79.18,122.22,85.81,122.262z"/>
	<path fill-rule="evenodd" clip-rule="evenodd" fill="#F2F1F1" d="M62.628,81.963c0.229,0.347,0.454,0.696,0.683,1.043
		c1.226,1.034,2.794,0.894,4.334,0.894c13.767-0.007,27.533-0.011,41.299,0.006c1.193,0.002,2.424-0.216,3.584,0.227
		c0.537,6.604,0.088,13.215,0.249,19.82c0.045,1.838-1.536,1.441-2.769,1.442c-8.299,0.021-16.598,0.013-24.896,0.011
		c-2.433-0.002-4.868,0.018-7.303-0.015c-1.182-0.373-2.713-0.567-1.588-2.128c10.987-0.141,21.977-0.006,32.963-0.067
		c0.651-0.065,0.929-0.408,0.915-0.919c-0.127-5.331,0.369-10.669-0.259-15.991c-0.918-0.365-1.94-0.054-2.877-0.304
		c-4.699-0.208-9.396-0.367-14.091,0.095c-8.548-0.261-17.095,0.013-25.642,0.048c-1.702,0.006-3.223-0.412-4.795-0.775
		c-1.564-0.527-2.49-1.559-2.704-2.876c-0.568-3.49-0.841-6.997,0.128-10.483c4.062-0.515,8.147-0.184,12.219-0.214
		c8.18-0.061,16.361-0.019,24.533-0.019c2.028-0.828,2.166-2.286,0.434-4.646l0.01,0.049c-0.271-0.945-0.477-1.889,0.137-2.804
		l0.026-0.03c1.354-0.602,2.719-0.709,3.8,0.315c0.987,0.937,0.29,1.819-0.446,2.63c-0.043,2.136-0.085,4.271-0.13,6.404
		c-1.141,0.536-2.383,0.264-3.573,0.267c-10.392,0.024-20.785,0.067-31.176-0.022c-2.607-0.022-3.703,0.721-3.418,2.876
		C62.501,78.512,61.893,80.27,62.628,81.963z"/>
	<path fill-rule="evenodd" clip-rule="evenodd" fill="#F3F2F2" d="M41.447,132.16c0.338,0.924,0.384,1.848-0.015,2.768
		c-3.064,1.127-6.289,0.388-9.435,0.527c-3.306,0.145-4.711,1.865-3.54,4.486c0.439,0.981,1.356,0.766,2.175,0.771
		c3.522,0.029,7.047,0.051,10.567-0.003c1.83-0.028,1.822,0.885,1.832,1.964c0.011,1.112-0.078,1.975-1.882,1.919
		c-5.924-0.181-11.861,0.276-17.779-0.253l-0.011,0.026c-0.588-6.593-0.1-13.195-0.272-19.792c-0.029-1.15,0.582-1.733,1.93-1.75
		c5.085-0.064,10.169-0.049,15.253-0.009c1.517,0.012,2.08,0.636,2.117,1.9c0.041,1.41-0.763,1.693-2.224,1.671
		c-2.983-0.049-5.972,0.055-8.951-0.035c-2.541-0.077-2.833,1.118-2.849,2.808c-0.013,1.725,0.363,2.82,2.882,2.767
		C34.645,131.855,38.059,131.758,41.447,132.16z"/>
	<path fill-rule="evenodd" clip-rule="evenodd" fill="#FBFAFA" d="M100.665,122.267c2.312-0.075,3.235,0.665,4.148,2.156
		c1.15,1.878,2.635,3.614,3.779,5.494c1.145,1.877,1.904,1.247,2.782-0.102c1.263-1.936,2.562-3.854,3.842-5.782
		c0.481-0.725,0.914-1.604,2.086-1.559c1.602,0.062,2.655-0.181,4.717,0.235c1.245,0.251-1.16,2.743-1.833,3.75
		c-1.068,1.604-1.961,2.729-3.277,4.192c-3.16,3.518-4.976,7.307-4.129,11.772c0.361,1.9-0.59,2.518-2.936,2.525
		c-2.393,0.007-3.242-0.682-2.9-2.553c0.794-4.353-0.898-8.072-3.987-11.529c-1.573-1.762-2.838-3.719-4.188-5.614
		c-0.545-0.765-1.724-1.572-1.175-2.422C98.159,121.959,99.444,122.232,100.665,122.267z"/>
	<path fill-rule="evenodd" clip-rule="evenodd" fill="#F1F0EF" d="M50.43,103.556C40.104,99.589,34.826,92.706,34.352,83.44
		c-0.376-7.338-0.096-14.698-0.09-22.05c0-0.969-0.332-2.188,1.6-2.153c1.969,0.036,1.475,1.321,1.479,2.238
		c0.035,5.973,0.314,11.957-0.047,17.915c-0.611,10.046,3.777,17.634,14.688,22.366c0.933,0.454,1.925,0.776,2.993,0.936
		c1.381,0.454,2.836,0.529,4.296,0.59c1.001,0.393,1.845,0.86,1.396,1.962c-0.507,0.188-1.022,0.171-1.542,0.046
		C56.095,105.163,53.384,103.939,50.43,103.556z"/>
	<path fill-rule="evenodd" clip-rule="evenodd" fill="#DCDBDB" d="M38.574,154.183c-5.352,0.136-5.352,0.136-5.352,4.582
		c0,2.295,0.016,4.59-0.013,6.885c-0.009,0.812,0.092,1.822-1.404,1.738c-1.219-0.068-1.15-0.974-1.157-1.688
		c-0.029-2.938-0.146-5.881,0.027-8.812c0.118-2.003-0.568-2.914-3.136-2.688c-1.178,0.104-2.903,0.459-2.679-1.438
		c4.31-1.001,8.702-0.309,13.053-0.368C39.376,152.375,39.212,153.357,38.574,154.183z"/>
	<path fill-rule="evenodd" clip-rule="evenodd" fill="#E0DFDF" d="M41.447,132.16c-3.632,0.003-7.264-0.066-10.891,0.033
		c-2.192,0.061-2.682-0.858-2.488-2.38c0.19-1.507-0.811-3.61,2.41-3.697c2.981-0.078,5.968-0.024,8.951-0.036
		c1.225-0.004,2.571,0.125,2.525-1.432c-0.039-1.364-1.231-1.302-2.354-1.304c-4.531-0.006-9.065,0.064-13.595-0.035
		c-2.151-0.046-2.57,0.778-2.562,2.336c0.03,6.239-0.045,12.48-0.082,18.721c-0.998-2.119-0.381-4.327-0.446-6.486
		c-0.137-4.407,0.009-8.82-0.067-13.229c-0.028-1.568,0.416-2.35,2.577-2.299c4.975,0.112,9.958,0.114,14.934,0.008
		c2.313-0.05,2.395,1.004,2.453,2.434c0.066,1.6-0.748,2.078-2.568,2.026c-2.982-0.086-5.979,0.073-8.958-0.049
		c-2.614-0.105-2.356,1.244-2.44,2.681c-0.089,1.525,0.456,2.168,2.406,2.093c2.76-0.107,5.53-0.034,8.296,0.012
		C40.229,131.565,41.165,131.212,41.447,132.16z"/>
	<path fill-rule="evenodd" clip-rule="evenodd" fill="#717070" d="M59.291,105.079c0.442,0.003,0.884,0.008,1.326,0.012
		c0.154-0.129,0.296-0.354,0.467-0.371c5.4-0.52,10.803-1.016,16.14,0.369c11.141,0.05,22.282,0.089,33.425,0.163
		c1.377,0.01,2.006-0.348,1.97-1.566c-0.193-6.494,0.329-12.996-0.285-19.487c-0.187-0.119-0.246-0.234-0.177-0.346
		c0.065-0.11,0.133-0.165,0.197-0.165c1.4,0.496,0.942,1.544,0.946,2.392c0.039,5.684-0.034,11.368,0.055,17.052
		c0.027,1.79-0.473,2.672-2.924,2.66c-17.109-0.075-34.221-0.052-51.33-0.082c-1.07-0.002-2.238,0.177-3.126-0.582
		C57.072,104.692,58.179,104.771,59.291,105.079z"/>
	<path fill-rule="evenodd" clip-rule="evenodd" fill="#EDEDED" d="M23.371,144.339c5.506-0.015,11.011-0.024,16.515-0.048
		c1.311-0.005,2.727,0.176,2.8-1.525c0.08-1.847-1.381-1.756-2.863-1.753c-3.082,0.008-6.17-0.079-9.247,0.021
		c-3.14,0.102-2.46-1.727-2.501-3.188c-0.04-1.444-0.404-3.031,2.458-2.948c3.629,0.107,7.267,0.029,10.9,0.029
		c0.007,1.214-1.107,0.906-1.897,0.915c-2.536,0.027-5.083,0.095-7.613-0.034c-2.148-0.108-3.156,0.266-3.217,2.347
		c-0.066,2.216,0.995,2.616,3.3,2.522c3.192-0.129,6.399,0.013,9.601-0.047c1.655-0.031,2.142,0.62,1.997,1.851
		c-0.12,1.018,0.456,2.409-1.671,2.405c-6.065-0.012-12.13-0.066-18.195-0.126C23.612,144.758,23.493,144.486,23.371,144.339z"/>
	<path fill-rule="evenodd" clip-rule="evenodd" fill="#D3D2D2" d="M59.338,103.586c-1.573-0.163-3.238,0.12-4.68-0.673
		c-0.24-0.112-0.321-0.227-0.245-0.343c0.076-0.117,0.152-0.177,0.231-0.177c10.523,1.179,21.098,0.402,31.647,0.538
		c7.816,0.102,15.638-0.036,23.458-0.066c0.209,0.129,0.284,0.263,0.224,0.401c-0.062,0.141-0.126,0.211-0.193,0.211
		c-11.274,0.04-22.549,0.081-33.823,0.12c-0.391,0.332-0.846,0.636-1.407,0.618C69.477,104.056,64.331,105.043,59.338,103.586z"/>
	<path fill-rule="evenodd" clip-rule="evenodd" fill="#D0CFCE" d="M107.212,85.722c0.879,0.037,1.758,0.074,2.636,0.11
		c0.159,0.143,0.2,0.273,0.126,0.394c-0.072,0.115-0.139,0.173-0.201,0.173c-14.225-0.044-28.448-0.083-42.674-0.137
		c-1.628-0.006-3.348,0.232-4.663-0.913c10.203,1.089,20.45-0.444,30.655,0.375C97.798,85.437,102.506,85.44,107.212,85.722z"/>
	<path fill-rule="evenodd" clip-rule="evenodd" fill="#D0CFCE" d="M112.354,83.687c-0.024,0.169-0.031,0.339-0.021,0.511
		c-15.007,0.002-30.013,0.015-45.02-0.01c-1.453-0.002-3.204,0.451-4.003-1.182c1.544,0.568,3.174,0.603,4.833,0.603
		C82.88,83.621,97.617,83.657,112.354,83.687z"/>
	<path fill-rule="evenodd" clip-rule="evenodd" fill="#D6D6D5" d="M62.628,81.963c-1.452-2.257-0.713-4.669-0.513-6.983
		c0.14-1.63,2.09-1.311,3.476-1.312c11.617-0.01,23.233,0.002,34.851,0.008c-0.767,1.264-2.157,0.606-3.219,0.612
		c-10.51,0.061-21.023,0.084-31.533,0.01c-2.223-0.017-3.279,0.403-3.06,2.435C62.817,78.463,62.644,80.219,62.628,81.963z"/>
	<path fill-rule="evenodd" clip-rule="evenodd" fill="#D6D6D5" d="M97.859,72.028c-12.667-0.013-25.333-0.025-38-0.038
		c1.022-0.843,2.307-0.414,3.453-0.418c10.272-0.028,20.544,0.006,30.817-0.003c1.207-0.001,2.414-0.137,3.622-0.21
		C98.126,71.544,98.16,71.767,97.859,72.028z"/>
	<path fill-rule="evenodd" clip-rule="evenodd" fill="#FFFFFF" d="M91.973,152.671c0.363-0.003,0.723-0.006,1.085-0.009
		c1.017,2.585,0.204,5.239,0.437,7.854c0.137,1.549-0.173,3.115,0.235,4.657c-0.125,1.05-0.529,1.765-2.029,1.177
		C91.581,161.789,91.04,157.22,91.973,152.671z"/>
	<path fill-rule="evenodd" clip-rule="evenodd" fill="#E8E7E7" d="M91.803,166.383c0.931-0.04,1.322-0.521,1.449-1.218
		c1.985,0.518,4.03,0.348,6.061,0.395c1.126,0.028,2.439-0.334,3.129,0.843c-0.015,1.275-1.174,1.044-2.083,1.045
		c-2.802,0.006-5.604-0.03-8.405-0.048C91.409,167.111,91.506,166.756,91.803,166.383z"/>
	<path fill-rule="evenodd" clip-rule="evenodd" fill="#7F7E7E" d="M102.441,166.403c-1.609-0.89-3.419-0.385-5.139-0.488
		c-1.4-0.087-2.886,0.202-4.051-0.749c-0.063-4.168-0.13-8.335-0.194-12.503c1.554,0.387,0.972,1.478,0.998,2.286
		c0.078,2.454,0.229,4.926-0.028,7.364c-0.264,2.509,0.945,3.266,3.749,2.968c1.182-0.125,2.407-0.019,3.607,0.042
		C102.139,165.36,102.576,165.713,102.441,166.403z"/>
	<path fill-rule="evenodd" clip-rule="evenodd" fill="#F1F0EF" d="M109.772,86.399c0.024-0.189,0.05-0.378,0.075-0.566
		c1.334,3.536,0.463,7.162,0.529,10.74c0.043,2.289,0.834,4.684-0.597,6.905c-0.01-0.204-0.02-0.408-0.03-0.612
		C109.758,97.376,109.765,91.887,109.772,86.399z"/>
	<path fill-rule="evenodd" clip-rule="evenodd" fill="#7F7E7E" d="M91.803,166.383c0.051,0.338,0.1,0.678,0.15,1.017
		c-0.677-0.099-0.846-0.527-0.847-0.994c-0.016-4.268-0.019-8.536-0.011-12.804c0.002-0.468,0.156-0.899,0.877-0.931
		C91.309,157.236,91.595,161.81,91.803,166.383z"/>
	<path fill-rule="evenodd" clip-rule="evenodd" fill="#4F4F4F" d="M38.574,154.183c0.433-1.192-0.136-1.695-1.596-1.648
		c-4.037,0.129-8.09-0.271-12.117,0.228c0.357-0.958,1.342-0.785,2.177-0.789c3.396-0.021,6.791-0.006,10.187-0.009
		c0.904,0,1.801,0.043,2.235,0.843C39.861,153.544,39.565,154.034,38.574,154.183z"/>
	<path fill-rule="evenodd" clip-rule="evenodd" fill="#E6E6E5" d="M68.507,156.127c0,2.575,0.001,5.149,0.002,7.725
		C66.987,161.278,66.883,158.703,68.507,156.127z"/>
	<path fill-rule="evenodd" clip-rule="evenodd" fill="#DDDCDC" d="M59.291,105.079c-1.104,0.016-2.21,0.031-3.316,0.048
		c-2.111,0.122-3.717-0.997-5.545-1.57C53.516,103.532,56.401,104.316,59.291,105.079z"/>
	<path fill-rule="evenodd" clip-rule="evenodd" fill="#E2E1E0" d="M100.571,67.272c1.393-2.952-0.831-3.066-3.354-2.945
		c1.427-1.345,3.019-1.171,4.143,0.09C102.179,65.333,102.65,66.672,100.571,67.272z"/>
	<path fill-rule="evenodd" clip-rule="evenodd" fill="#ECEBEB" d="M97.859,72.028c-0.035-0.222-0.07-0.447-0.107-0.669
		c-0.104-1.431,0.146-2.901-0.707-4.247C99.478,68.504,98.646,70.269,97.859,72.028z"/>
	<path fill-rule="evenodd" clip-rule="evenodd" fill="#DDDCDC" d="M54.645,102.394c0.002,0.174,0.007,0.346,0.013,0.52
		c-1.071-0.101-2.048-0.352-2.676-1.157C53.032,101.5,53.773,102.133,54.645,102.394z"/>
	<path fill-rule="evenodd" clip-rule="evenodd" fill="#E2E1E0" d="M97.191,64.357c-0.045,0.934-0.091,1.869-0.136,2.804
		C95.902,66.185,96.065,65.254,97.191,64.357z"/>
	<path fill-rule="evenodd" clip-rule="evenodd" fill="#E6E6E5" d="M71.152,153.445c-0.229,1.001-0.973,1.586-2.144,1.823
		C69.391,154.39,70.126,153.799,71.152,153.445z"/>
	<path fill-rule="evenodd" clip-rule="evenodd" fill="#424242" d="M58.941,135.564c-3.088,0.001-3.995-0.301-2.641-2.564
		c1.08-1.803,1.109-3.145,2.802-5.555c1.313,1.891,1.629,3.705,2.573,5.52C63.003,135.515,61.511,135.535,58.941,135.564z"/>
	<path fill-rule="evenodd" clip-rule="evenodd" fill="#FBFBFB" d="M88.905,99.613c-4.646,0-9.291,0.012-13.938-0.011
		c-1.067-0.006-2.352,0.3-3.032-0.667c-0.688-0.978-2.865-1.561-2.077-2.783c0.604-0.936,2.39-0.196,3.684-0.075
		c5.021,0.473,10.051,0.997,15.093,1.153c1.962,0.061,3.675-1.368,4.714-2.692c0.929-1.185-0.705-2.106-1.595-3.005
		c-0.537-0.542-1.711-0.945-1.339-1.734c0.438-0.927,1.708-0.641,2.666-0.646c3.319-0.022,6.64,0.049,9.954-0.03
		c1.918-0.045,2.717,0.428,2.802,2.165c0.42,8.327,0.479,8.326-9.631,8.326C93.772,99.613,91.34,99.613,88.905,99.613z"/>
	<path fill-rule="evenodd" clip-rule="evenodd" fill="#F1F0EF" d="M59.338,103.586c5.538,0.003,11.078,0.006,16.618,0.01
		c0.422,0.498,0.845,0.995,1.268,1.492c-5.536,0.143-11.07,0.313-16.606,0.002C60.191,104.587,59.766,104.087,59.338,103.586z"/>
	<path fill-rule="evenodd" clip-rule="evenodd" fill="#D6D5D5" d="M107.212,85.722c-4.706,0-9.412,0.002-14.119,0.002
		C97.798,85.009,102.506,85.011,107.212,85.722z"/>
	<path fill-rule="evenodd" clip-rule="evenodd" fill="#E3E2E2" d="M69.995,162.373c0.79,0.971,1.579,1.941,2.37,2.912
		C70.549,164.89,69.751,163.923,69.995,162.373z"/>
	<path fill-rule="evenodd" clip-rule="evenodd" fill="#E3E2E2" d="M69.979,157.543c-0.024,1.472-0.052,2.944-0.079,4.416
		C68.886,160.474,68.826,159.001,69.979,157.543z"/>
	<g>
		<path fill-rule="evenodd" clip-rule="evenodd" fill="#FFFFFF" d="M114.86,151.343c1.037,0.235,1.454,0.559,2.283,1.29
			c0.737,0.651,2.036,1.988,0.869,2.71c-1,0.615-1.497-0.592-2-1.104c-1.859-1.892-3.589-1.901-5.671-0.51
			c-0.76,0.983-0.544,2.205,0,3.261c1.658,1.988,4.161,1.403,6.242,2.479c1.817,0.939,3.25,1.705,3.076,4.019
			c-0.182,2.404-0.956,5.149-7.791,4.606c-0.216-0.181-0.182-1.558-0.195-1.838c0.062-0.604,2.419,1.158,4.771-0.671
			c1.693-1.981,1.227-3.6-0.875-4.647c-1.623-0.583-2.403-0.601-3.784-1.062c-2.474-0.629-2.685-1.102-3.62-2.208
			c-0.41-1.363-0.72-2.348-0.017-4.094c0.444-0.825,0.678-1.047,1.753-1.81C110.812,151.382,111.416,150.664,114.86,151.343z"/>
		<path fill-rule="evenodd" clip-rule="evenodd" fill="#FFFFFF" d="M113.325,168.143c-3.078,0.178-4.99-1.287-5.907-4.131
			c-0.204-0.632-0.262-1.297,0.458-1.635c0.812-0.382,1.559-0.104,1.756,0.747c0.335,1.448,1.233,2.383,2.423,3.14
			c0.171,0.153,0.335,0.312,0.495,0.478C112.936,167.141,113.628,167.374,113.325,168.143z"/>
	</g>
	<g>
		<g>
			<ellipse fill-rule="evenodd" clip-rule="evenodd" fill="#FFFFFF" cx="75.091" cy="159.784" rx="8.039" ry="8.419"/>
			<ellipse fill-rule="evenodd" clip-rule="evenodd" fill="#2B2B2B" cx="75.09" cy="159.947" rx="6.081" ry="6.271"/>
		</g>
		<g>
			<ellipse fill-rule="evenodd" clip-rule="evenodd" fill="#FFFFFF" cx="53.147" cy="159.805" rx="8.001" ry="8.435"/>
			<ellipse fill-rule="evenodd" clip-rule="evenodd" fill="#2B2B2B" cx="53.146" cy="159.968" rx="6.052" ry="6.283"/>
		</g>
	</g>
</g>
</svg>
