<?xml version="1.0" encoding="utf-8"?>
<!-- Generator: Adobe Illustrator 16.0.0, SVG Export Plug-In . SVG Version: 6.00 Build 0)  -->
<!DOCTYPE svg PUBLIC "-//W3C//DTD SVG 1.1//EN" "http://www.w3.org/Graphics/SVG/1.1/DTD/svg11.dtd">
<svg version="1.1" id="Layer_1" xmlns="http://www.w3.org/2000/svg" xmlns:xlink="http://www.w3.org/1999/xlink" x="0px" y="0px"
	 width="432.045px" height="106.337px" viewBox="0 0 432.045 106.337" enable-background="new 0 0 432.045 106.337"
	 xml:space="preserve">
<g>
	<g id="Ysqijw.tif">
		<g>
			<path fill="#3A3A3A" d="M214.553,99.409c-69.135,0-138.271-0.021-207.405,0.076c-2.783,0.004-3.101-0.697-3.092-3.066
				c0.1-29.266,0.092-58.53,0.006-87.795C4.056,6.615,4.651,6.304,6.598,6.305c138.596,0.045,277.192,0.049,415.789-0.024
				c2.365-0.001,2.596,0.618,2.592,2.593c-0.078,29.368-0.088,58.736,0.014,88.104c0.008,2.18-0.555,2.486-2.709,2.484
				C353.041,99.397,283.796,99.409,214.553,99.409z"/>
			<path fill-rule="evenodd" clip-rule="evenodd" fill="#FFFFFF" d="M404.982,25.173c1.854-0.066,2.816,0.187,2.457,2.331
				c-1.859,11.116-3.596,21.25-5.375,32.377c-1.387,7.163-1.299,8.868-2.195,13.273c-0.496,2.427-1.447,3.419-4.225,3.416
				c-63.578-0.065-127.155-0.062-190.731-0.011c0,0-3.694,0.164-6.146,0.222c-9.394-0.294-5.842-0.47-7.859-0.407
				c-1.358,0.062-1.213,0.156-2.715,0.122c-2.643-0.06-6.367-0.305-7.768-0.143c-4.889,0.187-1.031-0.081-6.085,0.121
				c-5.294,0.212-0.6-0.161-5.899,0.044c-2.146,0.082-2.827-0.936-2.813-2.83c0.045-6.057,0.031-12.113,0.005-18.169
				c-0.006-1.411,0.58-2.584,1.266-3.755c5.422-7.386,10.846-14.771,16.264-22.16c0.597-0.813,2.054-3.417,4.444-4.193"/>
			<path fill-rule="evenodd" clip-rule="evenodd" fill="#FEFEFE" d="M124.83,44.186c-2.242-0.03-3.698,0.021-5.041-2.616
				c-1.482-2.91-8.028-3.268-10.515-1.041c-1.883,1.686-1.477,4.199,1.162,5.188c2.903,1.089,5.996,1.729,9.007,2.558
				c1.35,0.372,2.744,0.634,4.051,1.11c5.755,2.098,8.29,5.383,8.236,10.538c-0.054,5.179-2.9,8.939-8.424,10.875
				c-5.945,2.082-11.93,1.996-17.762-0.332c-4.516-1.805-7.156-5.153-8.096-9.727c-0.321-1.564,0.084-2.361,1.902-2.256
				c1.082,0.062,2.174,0.061,3.256-0.002c2.342-0.134,4.019-0.076,5.057,2.769c1.474,4.038,10.533,4.944,13.629,1.735
				c1.93-2,1.195-4.645-1.991-5.821c-3.113-1.149-6.424-1.815-9.639-2.722c-1.243-0.351-2.501-0.691-3.684-1.185
				c-5.06-2.112-7.402-5.346-7.274-9.905c0.14-5.015,2.989-8.334,7.684-10.09c5.562-2.08,11.259-1.949,16.779,0.339
				c3.469,1.437,5.678,3.938,6.738,7.439c0.708,2.341,0.518,3.189-2.555,3.157C126.707,44.191,126.05,44.186,124.83,44.186z"/>
			<path fill-rule="evenodd" clip-rule="evenodd" fill="#FEFEFE" d="M89.451,71.375c-5.694,0.078-4.544-0.8-5.461-4.12
				c-0.858-3.11-2.191-3.732-5.678-3.788c-1.285-0.021-2.598,0.029-3.899,0.029c-7.079,0-6.948-0.391-9.731,6.091
				c-0.768,1.842-2.06,1.777-3.6,1.795c-7.063,0.08-7.036,0.098-4.366-6.051c4.396-10.125,8.82-20.242,13.066-30.423
				c0.806-1.934,1.729-2.867,3.971-2.653c2.341,0.223,4.737-0.623,6.034,2.583C84.271,45.921,89.1,56.88,93.812,67.882
				c1.483,3.462,1.485,3.48-2.529,3.493C90.85,71.376,90.416,71.375,89.451,71.375z"/>
			<path fill-rule="evenodd" clip-rule="evenodd" fill="#FDFDFD" d="M26.476,51.588c0-5.437,0.093-10.875-0.045-16.308
				c-0.056-2.188,0.465-3.097,3.031-3.019c5.956,0.18,11.925,0.138,17.885,0.016c2.213-0.045,3.088,0.517,3.019,2.737
				c-0.192,6.204,0.634,5.106-5.56,5.209c-1.734,0.029-3.483-0.038-5.198-0.037c-4.309,0.003-4.173-0.417-4.157,3.877
				c0.015,3.917,0.264,3.834,4.238,3.8c2.587-0.022,5.201,0.008,7.8-0.067c1.693-0.05,2.402,0.631,2.291,2.184
				c-0.015,0.204,0.001,0.41,0,0.615c-0.037,5.967,0.523,5.057-5.327,5.125c-1.626,0.019-3.268-0.108-4.872-0.036
				c-3.865,0.172-4.124,0.168-4.058,3.9c0.07,3.953,0.07,3.953,4.275,3.955c2.71,0,5.424,0.082,8.13-0.027
				c1.869-0.077,2.446,0.617,2.422,2.328c-0.094,6.829,0.461,5.476-5.516,5.553c-5.203,0.068-10.41-0.073-15.61,0.057
				c-2.152,0.053-2.827-0.621-2.788-2.629C26.548,63.077,26.477,57.332,26.476,51.588z"/>
			<path fill-rule="evenodd" clip-rule="evenodd" fill="#FEFEFE" d="M131.184,32.286c3.654,0,6.45,0.054,9.242-0.021
				c1.622-0.043,2.25,0.989,2.945,2.042c2.404,3.639,4.814,7.274,7.515,11.353c2.426-3.613,4.768-6.755,6.707-10.107
				c1.409-2.436,0.919-3.667,5.915-3.554c2.79,0.063,5.343-0.561,5.996,0.703c0.9,1.743-1.799,3.763-2.919,5.056
				c-2.873,4.103-5.861,8.141-9.005,12.061c-1.598,1.992-2.348,3.993-2.241,6.506c0.178,4.205-0.031,8.421,0.083,12.629
				c0.052,1.911-0.704,2.484-2.656,2.451c-7.928-0.135-6.467,0.885-6.344-5.912c-0.04-14.931-2.018-16.341-8.027-23.588
				C135.628,38.566,133.889,35.945,131.184,32.286z"/>
			<linearGradient id="SVGID_1_" gradientUnits="userSpaceOnUse" x1="273.8623" y1="51.8574" x2="316.0166" y2="51.8574">
				<stop  offset="0" style="stop-color:#F7941E"/>
				<stop  offset="1" style="stop-color:#FBB040"/>
			</linearGradient>
			<path fill-rule="evenodd" clip-rule="evenodd" fill="url(#SVGID_1_)" d="M294.984,31.988c11.332,0.023,20.94,9.045,21.032,19.753
				c0.096,10.75-9.697,20.008-21.137,19.985c-11.449-0.022-21.096-9.243-21.016-20.088C273.941,40.979,283.63,31.965,294.984,31.988
				z"/>
			<linearGradient id="SVGID_2_" gradientUnits="userSpaceOnUse" x1="349.7637" y1="52.1299" x2="383.8506" y2="52.1299">
				<stop  offset="0" style="stop-color:#FFF33B"/>
				<stop  offset="0.0595" style="stop-color:#FFE029"/>
				<stop  offset="0.1303" style="stop-color:#FFD218"/>
				<stop  offset="0.2032" style="stop-color:#FEC90F"/>
				<stop  offset="0.2809" style="stop-color:#FDC70C"/>
				<stop  offset="0.6685" style="stop-color:#F3903F"/>
				<stop  offset="0.8876" style="stop-color:#ED683C"/>
				<stop  offset="1" style="stop-color:#E93E3A"/>
			</linearGradient>
			<path fill-rule="evenodd" clip-rule="evenodd" fill="url(#SVGID_2_)" d="M365.861,31.98c9.248,0.069,14.492,3.312,16.281,9.466
				c0.574,1.972,0.656,2.697-2.078,2.7c-1.402,0.001-2.822-0.091-4.227-0.004c-1.695,0.105-2.59-0.34-3.371-2.017
				c-1.547-3.315-8.41-4.149-11.123-1.608c-1.959,1.834-1.383,4.115,1.438,5.375c2.863,1.279,6.02,1.643,9.029,2.469
				c1.762,0.484,3.525,1.006,5.207,1.691c4.119,1.679,6.607,4.556,6.814,8.926c0.217,4.571-1.445,8.419-5.795,10.588
				c-7.295,3.641-14.838,3.667-22.094-0.079c-3.561-1.839-5.707-4.926-6.146-8.932c-0.162-1.48,0.246-2.105,1.863-2.012
				c1.297,0.078,2.604,0.063,3.902,0.004c1.916-0.088,3.158,0.066,3.98,2.33c1.578,4.339,10.709,5.551,13.992,2.135
				c1.92-1.996,1.184-4.717-1.947-5.864c-3.113-1.144-6.43-1.786-9.629-2.732c-1.75-0.518-3.523-1.059-5.146-1.849
				c-7.443-3.629-8.008-13.278-1.068-17.773C358.982,32.696,362.609,31.822,365.861,31.98z"/>
			<linearGradient id="SVGID_3_" gradientUnits="userSpaceOnUse" x1="191.0737" y1="51.8965" x2="225.6812" y2="51.8965">
				<stop  offset="0" style="stop-color:#FFF33B"/>
				<stop  offset="0.0595" style="stop-color:#FFE029"/>
				<stop  offset="0.1303" style="stop-color:#FFD218"/>
				<stop  offset="0.2032" style="stop-color:#FEC90F"/>
				<stop  offset="0.2809" style="stop-color:#FDC70C"/>
				<stop  offset="0.6685" style="stop-color:#F3903F"/>
				<stop  offset="0.8876" style="stop-color:#ED683C"/>
				<stop  offset="1" style="stop-color:#E93E3A"/>
			</linearGradient>
			<path fill-rule="evenodd" clip-rule="evenodd" fill="url(#SVGID_3_)" d="M192.644,32.315c10.679,0.001,22.358,0.001,33.037,0.002
				c-0.006,2.536-0.039,1.536-0.05,6.139c0.207,1.577-1.312,2.457-3.016,2.612c-1.619,0.147-3.245,0.065-4.868,0.089
				c-2.4,0.034-3.711,1.205-3.53,3.447c0,4.041-0.277,7.292-0.224,11.232c-0.13,5.224-0.513,10.152-0.668,15.244
				c-3.1,0.48-6.202,0.567-9.305,0.021c-0.593-8.792-0.383-16.793-0.184-25.531c-0.058-5.012-0.058-5.012-5.326-5.027
				c-7.2-0.021-7.428,0.794-7.437-6.352C191.073,33.554,191.663,32.721,192.644,32.315z"/>
			<linearGradient id="SVGID_4_" gradientUnits="userSpaceOnUse" x1="321.8467" y1="51.7876" x2="345.5703" y2="51.7876">
				<stop  offset="0" style="stop-color:#F7941E"/>
				<stop  offset="1" style="stop-color:#FBB040"/>
			</linearGradient>
			<path fill-rule="evenodd" clip-rule="evenodd" fill="url(#SVGID_4_)" d="M321.885,51.588c0-5.542,0.064-11.086-0.035-16.627
				c-0.033-1.885,0.371-2.701,2.658-2.688c6.398,0.034,6.398-0.077,6.398,5.977c0,7.493,0.094,14.986-0.057,22.477
				c-0.047,2.341,0.705,3.057,3.135,2.892c2.914-0.198,5.861,0.062,8.781-0.084c2.082-0.104,2.869,0.463,2.801,2.551
				c-0.203,6.23,0.639,5.083-5.225,5.156c-5.316,0.066-10.635-0.074-15.945,0.059c-2.062,0.051-2.58-0.633-2.549-2.469
				C321.949,63.085,321.885,57.336,321.885,51.588z"/>
			<path fill-rule="evenodd" clip-rule="evenodd" fill="#EFEFEF" d="M213.103,71.012c0.253,0.015,0.507,0.029,0.76,0.044
				c-3.171,1.4-6.484,0.784-9.767,0.617c0.021-0.252,0.042-0.505,0.062-0.756C207.134,71.502,210.117,71.353,213.103,71.012z"/>
			<path fill-rule="evenodd" clip-rule="evenodd" fill="#2A2A2A" d="M79.116,54.341c0.932,2.317,1.474,2.018-4.735,2.016
				c-5.708-0.002-5.125,0.291-2.362-6.693c0.739-1.988,1.936-4.212,2.73-6.182"/>
			<path fill-rule="evenodd" clip-rule="evenodd" fill="#FEFEFE" d="M295.048,63.179c-6.442,0.055-12.076-5.174-12.129-11.252
				c-0.051-6.067,5.506-11.449,11.893-11.52c6.324-0.069,12.123,5.302,12.196,11.295C307.082,57.708,301.435,63.126,295.048,63.179z
				"/>
		</g>
	</g>
	<linearGradient id="SVGID_5_" gradientUnits="userSpaceOnUse" x1="228.4873" y1="51.2334" x2="270.6416" y2="51.2334">
		<stop  offset="0" style="stop-color:#F7941E"/>
		<stop  offset="1" style="stop-color:#FBB040"/>
	</linearGradient>
	<path fill-rule="evenodd" clip-rule="evenodd" fill="url(#SVGID_5_)" d="M249.609,31.364c11.332,0.023,20.939,9.045,21.032,19.753
		c0.095,10.751-9.697,20.007-21.138,19.985c-11.449-0.021-21.096-9.243-21.016-20.088C228.566,40.355,238.255,31.341,249.609,31.364
		z"/>
	<path fill-rule="evenodd" clip-rule="evenodd" fill="#FEFEFE" d="M249.649,63.133c-6.442,0.054-12.076-5.174-12.129-11.252
		c-0.051-6.067,5.506-11.449,11.893-11.52c6.324-0.069,12.123,5.302,12.195,11.295C261.682,57.661,256.036,63.079,249.649,63.133z"
		/>
</g>
</svg>
