<?xml version="1.0" encoding="utf-8"?>
<!-- Generator: Adobe Illustrator 22.0.1, SVG Export Plug-In . SVG Version: 6.00 Build 0)  -->
<svg version="1.1" id="Capa_1" xmlns="http://www.w3.org/2000/svg" xmlns:xlink="http://www.w3.org/1999/xlink" x="0px" y="0px"
	 viewBox="0 0 300 300" style="enable-background:new 0 0 300 300;" xml:space="preserve">
<style type="text/css">
	.st0{fill:url(#SVGID_1_);}
	.st1{fill:#FFFFFF;}
</style>
<radialGradient id="SVGID_1_" cx="149" cy="151" r="149" gradientUnits="userSpaceOnUse">
	<stop  offset="0.9448" style="stop-color:#D78C33"/>
	<stop  offset="1" style="stop-color:#4D4D4D"/>
</radialGradient>
<path class="st0" d="M149,2C66.7,2,0,68.7,0,151s66.7,149,149,149s149-66.7,149-149S231.3,2,149,2z"/>
<g>
	<path class="st1" d="M141,105.6c10.4,14.1,16.1,34,17,59.7H36.9c0.9,18.2,5.8,32.6,14.7,43c9.2,10.4,21.3,15.6,36.9,15.6
		c13.6,0,24.5-3.7,32.9-10.7c6.9-6.1,12.1-14.7,15.9-26.2h17.6c-3.5,14.4-10.1,26.2-19.9,35.5c-12.1,11-27.4,16.4-46.4,16.4
		c-21,0-37.8-7.2-50.2-21.3c-13-14.4-19.3-33.7-19.3-57.4c0-21.9,6.1-40.1,18.5-55.1c12.7-15.6,29.4-23.4,50.5-23.4
		C111.6,81.7,129.1,89.5,141,105.6z M58.9,114c-7.4,8.4-11.7,19.1-12.9,32.5h85c-2.4-30.1-16.7-45.1-42.7-45.1
		C76.1,101.4,66.3,105.4,58.9,114z"/>
</g>
<g>
	<path class="st1" d="M260.3,52l15.7,20.9h-84.2v220.7l-23.6,5.7V72.9h-146L37.6,52H260.3z"/>
</g>
</svg>
